<svg width="233" height="71" viewBox="0 0 233 71" fill="none" xmlns="http://www.w3.org/2000/svg">
<g clip-path="url(#clip0_93_258)">
<path d="M14.5407 15.3703H0V0.342285H14.5407V15.3703ZM1.62698 13.6956H12.9136V2.02933H1.62698V13.6956Z" fill="#6B9CF0"/>
<path d="M8.35198 8.98306H0V0.342285H8.35198V8.98306ZM1.62698 7.30225H6.73103V2.02933H1.62698V7.30225Z" fill="#6B9CF0"/>
<path d="M19.9034 22.0999L13.1543 15.1275L14.3053 13.9385L20.6084 20.4564" fill="#6B9CF0"/>
<path d="M67.9244 15.3703H53.3838V0.342285H67.9244V15.3703ZM55.0048 13.6956H66.2975V2.02933H54.9807L55.0048 13.6956Z" fill="#6B9CF0"/>
<path d="M67.9244 8.98306H59.5664V0.342285H67.9244V8.98306ZM61.1935 7.30225H66.2974V2.02933H61.1935V7.30225Z" fill="#6B9CF0"/>
<path d="M46.8887 20.8922L53.6197 13.9385L54.7706 15.1275L48.0396 22.0812" fill="#6B9CF0"/>
<path d="M14.6071 70.4895H0.0664062V55.4678H14.6071V70.4895ZM1.69339 68.8087H12.9801V57.1486H1.69339V68.8087Z" fill="#6B9CF0"/>
<path d="M8.39414 70.4895H0.0361328V61.855H8.39414V70.4895ZM1.66319 68.8087H6.77319V63.5358H1.66922L1.66319 68.8087Z" fill="#6B9CF0"/>
<path d="M31.3892 36.9125L13.1904 55.7134L14.3409 56.9019L32.5397 38.101L31.3892 36.9125Z" fill="#6B9CF0"/>
<path d="M67.9244 70.5208H53.3838V55.499H67.9244V70.5208ZM54.9807 68.8213H66.2733V57.1799H54.9807V68.8213Z" fill="#6B9CF0"/>
<path d="M67.9244 70.5204H59.5664V61.8921H67.9244V70.5204ZM61.1935 68.8396H66.2974V63.5667H61.1935V68.8396Z" fill="#6B9CF0"/>
<path d="M36.5616 36.9438L35.4111 38.1323L53.6099 56.9332L54.7603 55.7447L36.5616 36.9438Z" fill="#6B9CF0"/>
<path d="M109.082 22.0254V27.0057H106.4C103.441 27.0057 101.652 25.2999 101.652 22.1001V16.8459H92.1669V27.0057H86.8701V0.00634766H98.5604C104.406 0.00634766 107.913 2.91986 107.913 7.60754C107.913 11.019 105.713 13.366 102.821 14.3558H106.949V20.7492C106.936 20.921 106.959 21.0935 107.017 21.255C107.075 21.4165 107.166 21.5632 107.284 21.685C107.402 21.8068 107.544 21.9008 107.7 21.9606C107.857 22.0205 108.024 22.0447 108.19 22.0316L109.082 22.0254ZM92.1669 4.54464V12.5069H97.8012C101.037 12.5069 102.688 11.2992 102.688 8.52888C102.688 5.7586 101.037 4.54464 97.8012 4.54464H92.1669Z" fill="white"/>
<path d="M122.424 23.0899C123.521 23.1381 124.614 22.9336 125.625 22.491C126.636 22.0485 127.539 21.3791 128.269 20.5313L131.36 23.5879C129.438 25.7917 126.539 27.3231 122.424 27.3231C115.337 27.3231 111.691 22.6292 111.691 16.3105C111.691 9.77391 115.819 5.29785 122.08 5.29785C128.197 5.29785 132.186 9.65563 132.186 16.3105C132.198 16.8578 132.151 17.4048 132.047 17.9416H116.645C117.127 21.1725 119.188 23.0899 122.424 23.0899ZM116.717 14.2064H127.166C126.618 11.1559 124.756 9.45018 122.08 9.45018C119.188 9.45018 117.265 11.2244 116.717 14.2064Z" fill="white"/>
<path d="M86.5273 59.8441V43.6582H91.8242V59.7133C91.8242 63.766 94.09 66.1815 97.9406 66.1815C101.791 66.1815 104.063 63.766 104.063 59.7133V43.6582H109.36V59.8441C109.36 66.692 105.027 70.9999 97.9104 70.9999C90.7937 70.9999 86.5273 66.6671 86.5273 59.8441Z" fill="white"/>
<path d="M134.385 66.1692V70.6452C133.56 70.7137 133.011 70.7137 132.186 70.7137C129.299 70.7137 127.715 69.2258 127.715 66.3124V62.1165H120.664V70.6452H115.711V42.2266H120.664V57.4288H123.894L128.914 49.3359H134.144L128.848 57.5098H132.463V65.086C132.455 65.2279 132.477 65.37 132.526 65.5028C132.575 65.6357 132.65 65.7563 132.747 65.8568C132.845 65.9573 132.962 66.0354 133.09 66.0861C133.219 66.1367 133.356 66.1587 133.494 66.1505L134.385 66.1692Z" fill="white"/>
<path d="M152.132 49.1863L151.994 54.0233C150.995 53.8826 149.988 53.8099 148.981 53.8055C145.817 53.8055 143.611 55.5859 143.611 58.9227V70.645H138.664V49.3294H143.063L143.34 52.6725C144.126 51.5143 145.179 50.5766 146.404 49.944C147.628 49.3114 148.986 49.004 150.354 49.0493C150.949 49.064 151.542 49.1097 152.132 49.1863Z" fill="white"/>
<path d="M173.307 66.2374V70.6449C172.71 70.7531 172.104 70.8011 171.499 70.7881C168.95 70.7881 167.648 69.7921 167.281 67.5198C166.42 68.6403 165.318 69.5382 164.063 70.1423C162.808 70.7463 161.434 71.0399 160.049 70.9998C156.06 70.9998 153.312 68.5097 153.312 64.7745C153.312 59.3709 158.266 58.3063 162.183 57.8083C164.864 57.4535 166.582 57.0986 166.582 55.6792C166.582 54.2599 165.069 53.1891 162.598 53.1891C161.502 53.1903 160.417 53.4241 159.412 53.876C158.407 54.3279 157.502 54.9882 156.753 55.8162L153.795 52.6163C156.24 50.2211 159.501 48.9191 162.87 48.9932C168.094 48.9932 171.192 51.695 171.192 56.0963V64.9799C171.168 65.1504 171.183 65.3241 171.235 65.4876C171.287 65.6512 171.375 65.8004 171.491 65.9236C171.607 66.0468 171.749 66.1408 171.906 66.1985C172.063 66.2561 172.231 66.2758 172.397 66.2561L173.307 66.2374ZM166.503 62.4026V60.1988C165.678 60.6969 164.509 60.9085 162.785 61.1949C160.447 61.6244 158.181 61.9793 158.181 64.3076C158.181 65.9448 159.278 66.9409 161.134 66.9409C164.093 66.9533 166.503 64.8927 166.503 62.4026Z" fill="white"/>
<path d="M177.712 41.9463H183.075V46.4908H177.712V41.9463ZM177.917 49.3295H182.87V70.6451H177.911L177.917 49.3295Z" fill="white"/>
<path d="M208.378 57.1485V70.6451H203.431V58.3563C203.431 55.088 201.918 53.239 199.369 53.239C196.483 53.239 194.145 55.3681 194.145 58.4247V70.6451H189.191V49.3295H193.578L193.849 52.4422C194.671 51.3326 195.734 50.4391 196.953 49.8343C198.172 49.2296 199.512 48.9308 200.864 48.9622C205.287 48.9747 208.378 52.243 208.378 57.1485Z" fill="white"/>
<path d="M223.232 66.7359C224.329 66.785 225.423 66.5808 226.434 66.1382C227.445 65.6956 228.348 65.0257 229.077 64.1772L232.175 67.2339C230.246 69.4377 227.354 70.9691 223.232 70.9691C216.152 70.9691 212.506 66.2814 212.506 59.9565C212.506 53.4199 216.634 48.9438 222.889 48.9438C229.011 48.9438 233 53.3016 233 59.9565C233.012 60.5058 232.965 61.0548 232.861 61.5937H217.459C217.935 64.8185 220.002 66.7359 223.232 66.7359ZM217.525 57.8585H227.98C227.426 54.8019 225.57 53.0961 222.889 53.0961C220.002 53.0961 218.074 54.8704 217.525 57.8585Z" fill="white"/>
<path d="M34.7759 37.464L19.7109 21.9006V0.342285L34.7759 14.3181V37.464ZM21.3199 21.1972L33.1489 33.4113V15.0777L21.3199 4.11488V21.1972Z" fill="#FFD801"/>
<path d="M33.1484 37.4641V14.3245L48.2134 0.348633V21.8883L33.1484 37.4641ZM34.7754 15.0529V33.3865L46.5984 21.1724V4.09007L34.7754 15.0529Z" fill="#FFD801"/>
<path d="M48.226 70.5209L33.1611 56.545V33.4116L48.226 48.975V70.5209ZM34.776 55.798L46.599 66.7545V49.6784L34.776 37.4643V55.798Z" fill="#FFD801"/>
<path d="M19.6934 70.5205V48.9808L34.7583 33.4175V56.5508L19.6934 70.5205ZM21.3204 49.6781V66.7542L33.1494 55.7976V37.464L21.3204 49.6781Z" fill="#FFD801"/>
<path d="M54.379 36.2753H31.9805L47.0454 20.7119H67.8953L54.379 36.2753ZM35.9034 34.5945H53.6499L64.2616 22.3803H47.7504L35.9034 34.5945Z" fill="#FFD801"/>
<path d="M67.9245 50.1761H47.0747L32.0098 34.6128H54.3781L67.9245 50.1761ZM47.7436 48.4953H64.2788L53.6671 36.2749H35.9206L47.7436 48.4953Z" fill="#FFD801"/>
<path d="M20.8498 50.1761H0L13.5283 34.6128H35.9208L20.8498 50.1761ZM3.63971 48.4953H20.1749L31.9979 36.2749H14.2514L3.63971 48.4953Z" fill="#FFD801"/>
<path d="M35.9208 36.2753H13.5283L0 20.7119H20.8498L35.9208 36.2753ZM14.2273 34.5945H31.9737L20.1508 22.3803H3.63971L14.2273 34.5945Z" fill="#FFD801"/>
</g>
<defs>
<clipPath id="clip0_93_258">
<rect width="233" height="71" fill="white"/>
</clipPath>
</defs>
</svg>
