<svg width="132" height="40" viewBox="0 0 132 40" fill="none" xmlns="http://www.w3.org/2000/svg">
<g clip-path="url(#clip0_93_119)">
<path d="M8.23763 8.65934H0V0.192871H8.23763V8.65934ZM0.921723 7.71587H7.31586V1.14332H0.921723V7.71587Z" fill="#6B9CF0"/>
<path d="M4.73159 5.06091H0V0.192871H4.73159V5.06091ZM0.921723 4.11398H3.81329V1.14332H0.921723V4.11398Z" fill="#6B9CF0"/>
<path d="M11.2766 12.4508L7.45312 8.52266L8.10517 7.85278L11.6761 11.5249" fill="#6B9CF0"/>
<path d="M38.4808 8.65934H30.2432V0.192871H38.4808V8.65934ZM31.1615 7.71587H37.5591V1.14332H31.1478L31.1615 7.71587Z" fill="#6B9CF0"/>
<path d="M38.4811 5.06091H33.7461V0.192871H38.4811V5.06091ZM34.6679 4.11398H37.5594V1.14332H34.6679V4.11398Z" fill="#6B9CF0"/>
<path d="M26.5625 11.7704L30.3758 7.85278L31.0278 8.52266L27.2145 12.4402" fill="#6B9CF0"/>
<path d="M8.27474 39.7125H0.0371094V31.2495H8.27474V39.7125ZM0.958833 38.7655H7.35301V32.1965H0.958833V38.7655Z" fill="#6B9CF0"/>
<path d="M4.75552 39.7124H0.0205078V34.8479H4.75552V39.7124ZM0.942273 38.7655H3.83721V35.7949H0.94569L0.942273 38.7655Z" fill="#6B9CF0"/>
<path d="M17.7827 20.7956L7.47266 31.3877L8.12443 32.0573L18.4345 21.4652L17.7827 20.7956Z" fill="#6B9CF0"/>
<path d="M38.4808 39.73H30.2432V31.2671H38.4808V39.73ZM31.1478 38.7726H37.5454V32.214H31.1478V38.7726Z" fill="#6B9CF0"/>
<path d="M38.4811 39.7299H33.7461V34.8689H38.4811V39.7299ZM34.6679 38.783H37.5594V35.8123H34.6679V38.783Z" fill="#6B9CF0"/>
<path d="M20.7123 20.8133L20.0605 21.4829L30.3706 32.0749L31.0223 31.4054L20.7123 20.8133Z" fill="#6B9CF0"/>
<path d="M61.7973 12.4085V15.2143H60.2781C58.6019 15.2143 57.588 14.2533 57.588 12.4506V9.4905H52.2146V15.2143H49.2139V0.00341797H55.8367C59.1481 0.00341797 61.135 1.64483 61.135 4.28578C61.135 6.20774 59.889 7.52996 58.2503 8.08761H60.5888V11.6895C60.5816 11.7863 60.5949 11.8835 60.6277 11.9745C60.6605 12.0655 60.7121 12.1481 60.7789 12.2167C60.8457 12.2853 60.9261 12.3383 61.0147 12.372C61.1033 12.4057 61.1979 12.4194 61.2921 12.412L61.7973 12.4085ZM52.2146 2.5602V7.04597H55.4066C57.2398 7.04597 58.1752 6.36556 58.1752 4.80484C58.1752 3.24412 57.2398 2.5602 55.4066 2.5602H52.2146Z" fill="white"/>
<path d="M69.3555 13.0083C69.977 13.0355 70.5965 12.9202 71.1693 12.6709C71.7421 12.4216 72.2536 12.0444 72.6669 11.5668L74.4182 13.2889C73.3292 14.5305 71.6871 15.3932 69.3555 15.3932C65.3408 15.3932 63.2754 12.7488 63.2754 9.18894C63.2754 5.50634 65.6139 2.98462 69.1609 2.98462C72.6259 2.98462 74.8859 5.43971 74.8859 9.18894C74.8926 9.49727 74.8663 9.80541 74.8074 10.1078H66.0816C66.3547 11.9281 67.5222 13.0083 69.3555 13.0083ZM66.1225 8.00349H72.0422C71.7315 6.28495 70.6766 5.32396 69.1609 5.32396C67.5222 5.32396 66.4332 6.32353 66.1225 8.00349Z" fill="white"/>
<path d="M49.0195 33.715V24.5962H52.0203V33.6413C52.0203 35.9245 53.3039 37.2854 55.4854 37.2854C57.6668 37.2854 58.9538 35.9245 58.9538 33.6413V24.5962H61.9546V33.715C61.9546 37.573 59.5001 40 55.4683 40C51.4365 40 49.0195 37.5589 49.0195 33.715Z" fill="white"/>
<path d="M76.1323 37.2784V39.8001C75.6646 39.8386 75.3539 39.8386 74.8862 39.8386C73.251 39.8386 72.3531 39.0004 72.3531 37.359V34.9951H68.3589V39.8001H65.5527V23.7896H68.3589V32.3542H70.1887L73.0325 27.7948H75.9957L72.9949 32.3998H75.0432V36.6681C75.0388 36.7481 75.0508 36.8281 75.0786 36.9029C75.1064 36.9778 75.1492 37.0457 75.2043 37.1024C75.2594 37.159 75.3256 37.203 75.3984 37.2315C75.4713 37.26 75.5492 37.2724 75.627 37.2678L76.1323 37.2784Z" fill="white"/>
<path d="M86.1866 27.7107L86.1081 30.4358C85.5423 30.3566 84.9721 30.3156 84.4012 30.3131C82.6089 30.3131 81.3594 31.3162 81.3594 33.196V39.8002H78.5566V27.7914H81.0488L81.2058 29.6748C81.6511 29.0223 82.2475 28.494 82.9413 28.1376C83.635 27.7813 84.4043 27.608 85.1795 27.6336C85.5163 27.6419 85.8524 27.6676 86.1866 27.7107Z" fill="white"/>
<path d="M98.1826 37.3168V39.7999C97.8446 39.8609 97.5016 39.8879 97.1585 39.8806C95.7144 39.8806 94.977 39.3194 94.7688 38.0393C94.2811 38.6706 93.657 39.1764 92.9459 39.5167C92.2348 39.8571 91.4563 40.0225 90.6721 39.9998C88.4122 39.9998 86.8555 38.597 86.8555 36.4926C86.8555 33.4483 89.6616 32.8486 91.8807 32.568C93.3998 32.3681 94.3727 32.1682 94.3727 31.3686C94.3727 30.5689 93.5159 29.9657 92.1162 29.9657C91.495 29.9663 90.8806 30.098 90.311 30.3526C89.7413 30.6072 89.2287 30.9792 88.8048 31.4457L87.1286 29.643C88.5138 28.2935 90.3613 27.56 92.2698 27.6018C95.2297 27.6018 96.9844 29.1239 96.9844 31.6035V36.6084C96.9712 36.7044 96.9797 36.8022 97.0091 36.8944C97.0385 36.9866 97.088 37.0706 97.154 37.14C97.2199 37.2094 97.3004 37.2624 97.3894 37.2949C97.4783 37.3274 97.5733 37.3385 97.6671 37.3273L98.1826 37.3168ZM94.3284 35.1564V33.9148C93.8607 34.1954 93.1984 34.3146 92.222 34.476C90.8975 34.718 89.6139 34.9179 89.6139 36.2296C89.6139 37.152 90.2352 37.7131 91.2866 37.7131C92.9629 37.7201 94.3284 36.5593 94.3284 35.1564Z" fill="white"/>
<path d="M100.678 23.6318H103.716V26.1921H100.678V23.6318ZM100.794 27.7914H103.6V39.8002H100.79L100.794 27.7914Z" fill="white"/>
<path d="M118.051 32.1963V39.8H115.249V32.8767C115.249 31.0354 114.392 29.9937 112.948 29.9937C111.312 29.9937 109.988 31.1932 109.988 32.9153V39.8H107.182V27.7912H109.667L109.821 29.5448C110.286 28.9197 110.888 28.4163 111.579 28.0756C112.269 27.7349 113.028 27.5666 113.794 27.5843C116.3 27.5913 118.051 29.4326 118.051 32.1963Z" fill="white"/>
<path d="M126.466 37.5974C127.088 37.6251 127.708 37.5101 128.28 37.2607C128.853 37.0114 129.365 36.6339 129.778 36.1559L131.532 37.878C130.44 39.1195 128.801 39.9823 126.466 39.9823C122.455 39.9823 120.39 37.3414 120.39 33.778C120.39 30.0954 122.728 27.5737 126.272 27.5737C129.74 27.5737 132 30.0288 132 33.778C132.007 34.0875 131.98 34.3968 131.922 34.7004H123.196C123.466 36.5172 124.636 37.5974 126.466 37.5974ZM123.233 32.5961H129.156C128.842 30.874 127.791 29.913 126.272 29.913C124.636 29.913 123.544 30.9126 123.233 32.5961Z" fill="white"/>
<path d="M19.7006 21.1065L11.166 12.3384V0.192871L19.7006 8.06659V21.1065ZM12.0775 11.9421L18.7789 18.8233V8.49451L12.0775 2.31827V11.9421Z" fill="#FFD801"/>
<path d="M18.7793 21.1064V8.07001L27.3139 0.196289V12.3313L18.7793 21.1064ZM19.701 8.48037V18.8092L26.399 11.928V2.30414L19.701 8.48037Z" fill="#FFD801"/>
<path d="M27.3217 39.7299L18.7871 31.8561V18.8232L27.3217 27.5913V39.7299ZM19.702 31.4353L26.4 37.608V27.9876L19.702 21.1065V31.4353Z" fill="#FFD801"/>
<path d="M11.1562 39.73V27.595L19.6909 18.8269V31.8598L11.1562 39.73ZM12.078 27.9878V37.6081L18.7794 31.4354V21.1066L12.078 27.9878Z" fill="#FFD801"/>
<path d="M30.8065 20.4365H18.1172L26.6518 11.6685H38.4638L30.8065 20.4365ZM20.3396 19.4896H30.3934L36.4052 12.6084H27.0513L20.3396 19.4896Z" fill="#FFD801"/>
<path d="M38.4813 28.2683H26.6694L18.1348 19.5002H30.807L38.4813 28.2683ZM27.0483 27.3214H36.416L30.4041 20.4367H20.3504L27.0483 27.3214Z" fill="#FFD801"/>
<path d="M11.8119 28.2683H0L7.66408 19.5002H20.35L11.8119 28.2683ZM2.06198 27.3214H11.4296L18.1275 20.4367H8.07377L2.06198 27.3214Z" fill="#FFD801"/>
<path d="M20.35 20.4365H7.66408L0 11.6685H11.8119L20.35 20.4365ZM8.0601 19.4896H18.1139L11.4159 12.6084H2.06198L8.0601 19.4896Z" fill="#FFD801"/>
</g>
<defs>
<clipPath id="clip0_93_119">
<rect width="132" height="40" fill="white"/>
</clipPath>
</defs>
</svg>
