<svg width="110" height="113" viewBox="0 0 110 113" fill="none" xmlns="http://www.w3.org/2000/svg">
<path d="M23.4648 24.1294H0V0H23.4648V24.1294ZM2.62552 21.4405H20.8391V2.70877H2.62552V21.4405Z" fill="#6B9CF0"/>
<path d="M13.4779 13.8739H0V0H13.4779V13.8739ZM2.62551 11.1752H10.8621V2.70877H2.62551V11.1752Z" fill="#6B9CF0"/>
<path d="M32.1197 34.9348L21.2285 23.7397L23.0859 21.8306L33.2575 32.296" fill="#6B9CF0"/>
<path d="M109.612 24.1294H86.1475V0H109.612V24.1294ZM88.7634 21.4405H106.987V2.70877H88.7244L88.7634 21.4405Z" fill="#6B9CF0"/>
<path d="M109.613 13.8739H96.125V0H109.613V13.8739ZM98.7506 11.1752H106.987V2.70877H98.7506V11.1752Z" fill="#6B9CF0"/>
<path d="M75.665 32.9957L86.5271 21.8306L88.3844 23.7397L77.5224 34.9048" fill="#6B9CF0"/>
<path d="M23.5722 112.631H0.107422V88.5112H23.5722V112.631ZM2.73294 109.932H20.9467V91.2101H2.73294V109.932Z" fill="#6B9CF0"/>
<path d="M13.5462 112.631H0.0585938V98.7666H13.5462V112.631ZM2.68423 109.932H10.9304V101.465H2.69396L2.68423 109.932Z" fill="#6B9CF0"/>
<path d="M50.6551 58.7182L21.2871 88.9055L23.1437 90.8139L52.5116 60.6265L50.6551 58.7182Z" fill="#6B9CF0"/>
<path d="M109.612 112.68H86.1475V88.561H109.612V112.68ZM88.7244 109.952H106.948V91.2599H88.7244V109.952Z" fill="#6B9CF0"/>
<path d="M109.613 112.681H96.125V98.8267H109.613V112.681ZM98.7506 109.982H106.987V101.515H98.7506V109.982Z" fill="#6B9CF0"/>
<path d="M59.0001 58.7684L57.1436 60.6768L86.5115 90.8641L88.368 88.9557L59.0001 58.7684Z" fill="#6B9CF0"/>
<path d="M56.1194 59.6039L31.8086 34.6148V0L56.1194 22.4401V59.6039ZM34.405 33.4853L53.4938 53.0967V23.6597L34.405 6.0574V33.4853Z" fill="#FFD801"/>
<path d="M53.4941 59.6039V22.4501L77.8049 0.0100098V34.5948L53.4941 59.6039ZM56.1197 23.6196V53.0567L75.1987 33.4454V6.01738L56.1197 23.6196Z" fill="#FFD801"/>
<path d="M77.8234 112.681L53.5127 90.2404V53.0967L77.8234 78.0857V112.681ZM56.1187 89.0409L75.1978 106.633V79.2152L56.1187 59.6038V89.0409Z" fill="#FFD801"/>
<path d="M31.7793 112.681V78.0957L56.0901 53.1067V90.2504L31.7793 112.681ZM34.4049 79.2152V106.633L53.4937 89.0409V59.6038L34.4049 79.2152Z" fill="#FFD801"/>
<path d="M87.7527 57.6946H51.6074L75.9182 32.7056H109.564L87.7527 57.6946ZM57.938 54.9958H86.5761L103.701 35.3844H77.056L57.938 54.9958Z" fill="#FFD801"/>
<path d="M109.612 80.0149H75.966L51.6553 55.0259H87.7519L109.612 80.0149ZM77.0454 77.3161H103.729L86.6044 57.6947H57.9663L77.0454 77.3161Z" fill="#FFD801"/>
<path d="M33.6461 80.0149H0L21.831 55.0259H57.9666L33.6461 80.0149ZM5.87352 77.3161H32.557L51.636 57.6947H22.998L5.87352 77.3161Z" fill="#FFD801"/>
<path d="M57.9666 57.6946H21.831L0 32.7056H33.6461L57.9666 57.6946ZM22.9591 54.9958H51.5971L32.518 35.3844H5.87352L22.9591 54.9958Z" fill="#FFD801"/>
</svg>
