<svg width="420" height="37" viewBox="0 0 420 37" fill="none" xmlns="http://www.w3.org/2000/svg">
<path d="M18.2175 19.4555L10.3257 11.3242V0.060791L18.2175 7.36266V19.4555ZM11.1685 10.9567L17.3652 17.3381V7.75949L11.1685 2.03183V10.9567Z" fill="#6B9CF0"/>
<path d="M17.3655 19.4554V7.36583L25.2573 0.0639648V11.3176L17.3655 19.4554ZM18.2178 7.74639V17.325L24.4112 10.9436V2.01873L18.2178 7.74639Z" fill="#6B9CF0"/>
<path d="M25.2629 36.7263L17.3711 29.4245V17.3381L25.2629 25.4694V36.7263ZM18.2171 29.0342L24.4105 34.7586V25.8369L18.2171 19.4555V29.0342Z" fill="#6B9CF0"/>
<path d="M10.3162 36.7263V25.4726L18.2079 17.3413V29.4276L10.3162 36.7263ZM11.1685 25.8369V34.7585L17.3651 29.0341V19.4554L11.1685 25.8369Z" fill="#6B9CF0"/>
<path d="M28.4866 18.8342H16.7531L24.6448 10.7029H35.5671L28.4866 18.8342ZM18.8081 17.956H28.1046L33.6636 11.5746H25.0142L18.8081 17.956Z" fill="#6B9CF0"/>
<path d="M35.5822 26.097H24.66L16.7682 17.9657H28.4859L35.5822 26.097ZM25.0104 25.2188H33.6724L28.1134 18.8341H18.8169L25.0104 25.2188Z" fill="#6B9CF0"/>
<path d="M10.9222 26.097H0L7.0868 17.9657H18.8172L10.9222 26.097ZM1.90667 25.2188H10.5687L16.7621 18.8341H7.46563L1.90667 25.2188Z" fill="#6B9CF0"/>
<path d="M18.8172 18.8342H7.0868L0 10.7029H10.9222L18.8172 18.8342ZM7.45299 17.956H16.7495L10.556 11.5746H1.90667L7.45299 17.956Z" fill="#6B9CF0"/>
<path d="M227.9 19.4555L220.008 11.3242V0.060791L227.9 7.36266V19.4555ZM220.851 10.9567L227.047 17.3381V7.75949L220.851 2.03183V10.9567Z" fill="#6B9CF0"/>
<path d="M227.048 19.4554V7.36583L234.94 0.0639648V11.3176L227.048 19.4554ZM227.9 7.74639V17.325L234.094 10.9436V2.01873L227.9 7.74639Z" fill="#6B9CF0"/>
<path d="M234.945 36.7263L227.054 29.4245V17.3381L234.945 25.4694V36.7263ZM227.9 29.0342L234.093 34.7586V25.8369L227.9 19.4555V29.0342Z" fill="#6B9CF0"/>
<path d="M219.999 36.7263V25.4726L227.891 17.3413V29.4276L219.999 36.7263ZM220.851 25.8369V34.7585L227.048 29.0341V19.4554L220.851 25.8369Z" fill="#6B9CF0"/>
<path d="M238.169 18.8342H226.435L234.327 10.7029H245.249L238.169 18.8342ZM228.49 17.956H237.787L243.346 11.5746H234.697L228.49 17.956Z" fill="#6B9CF0"/>
<path d="M245.265 26.097H234.342L226.451 17.9657H238.168L245.265 26.097ZM234.693 25.2188H243.355L237.796 18.8341H228.499L234.693 25.2188Z" fill="#6B9CF0"/>
<path d="M220.605 26.097H209.682L216.769 17.9657H228.5L220.605 26.097ZM211.589 25.2188H220.251L226.445 18.8341H217.148L211.589 25.2188Z" fill="#6B9CF0"/>
<path d="M228.5 18.8342H216.769L209.682 10.7029H220.605L228.5 18.8342ZM217.135 17.956H226.432L220.239 11.5746H211.589L217.135 17.956Z" fill="#6B9CF0"/>
<path d="M123.059 19.4555L115.167 11.3242V0.060791L123.059 7.36266V19.4555ZM116.01 10.9567L122.206 17.3381V7.75949L116.01 2.03183V10.9567Z" fill="#6B9CF0"/>
<path d="M122.207 19.4554V7.36583L130.098 0.0639648V11.3176L122.207 19.4554ZM123.059 7.74639V17.325L129.252 10.9436V2.01873L123.059 7.74639Z" fill="#6B9CF0"/>
<path d="M130.104 36.7263L122.213 29.4245V17.3381L130.104 25.4694V36.7263ZM123.059 29.0342L129.252 34.7586V25.8369L123.059 19.4555V29.0342Z" fill="#6B9CF0"/>
<path d="M115.157 36.7263V25.4726L123.049 17.3413V29.4276L115.157 36.7263ZM116.01 25.8369V34.7585L122.206 29.0341V19.4554L116.01 25.8369Z" fill="#6B9CF0"/>
<path d="M133.328 18.8342H121.594L129.486 10.7029H140.408L133.328 18.8342ZM123.649 17.956H132.946L138.505 11.5746H129.855L123.649 17.956Z" fill="#6B9CF0"/>
<path d="M140.423 26.097H129.501L121.609 17.9657H133.327L140.423 26.097ZM129.852 25.2188H138.514L132.955 18.8341H123.658L129.852 25.2188Z" fill="#6B9CF0"/>
<path d="M115.763 26.097H104.841L111.928 17.9657H123.658L115.763 26.097ZM106.748 25.2188H115.41L121.603 18.8341H112.307L106.748 25.2188Z" fill="#6B9CF0"/>
<path d="M123.658 18.8342H111.928L104.841 10.7029H115.763L123.658 18.8342ZM112.294 17.956H121.591L115.397 11.5746H106.748L112.294 17.956Z" fill="#6B9CF0"/>
<path d="M332.741 19.4555L324.849 11.3242V0.060791L332.741 7.36266V19.4555ZM325.692 10.9567L331.889 17.3381V7.75949L325.692 2.03183V10.9567Z" fill="#6B9CF0"/>
<path d="M331.889 19.4554V7.36583L339.781 0.0639648V11.3176L331.889 19.4554ZM332.741 7.74639V17.325L338.935 10.9436V2.01873L332.741 7.74639Z" fill="#6B9CF0"/>
<path d="M339.787 36.7263L331.895 29.4245V17.3381L339.787 25.4694V36.7263ZM332.741 29.0342L338.934 34.7586V25.8369L332.741 19.4555V29.0342Z" fill="#6B9CF0"/>
<path d="M324.84 36.7263V25.4726L332.732 17.3413V29.4276L324.84 36.7263ZM325.692 25.8369V34.7585L331.889 29.0341V19.4554L325.692 25.8369Z" fill="#6B9CF0"/>
<path d="M343.01 18.8342H331.277L339.169 10.7029H350.091L343.01 18.8342ZM333.332 17.956H342.628L348.187 11.5746H339.538L333.332 17.956Z" fill="#6B9CF0"/>
<path d="M350.106 26.097H339.184L331.292 17.9657H343.009L350.106 26.097ZM339.534 25.2188H348.196L342.637 18.8341H333.34L339.534 25.2188Z" fill="#6B9CF0"/>
<path d="M325.446 26.097H314.523L321.61 17.9657H333.341L325.446 26.097ZM316.43 25.2188H325.092L331.286 18.8341H321.989L316.43 25.2188Z" fill="#6B9CF0"/>
<path d="M333.341 18.8342H321.61L314.523 10.7029H325.446L333.341 18.8342ZM321.976 17.956H331.273L325.079 11.5746H316.43L321.976 17.956Z" fill="#6B9CF0"/>
<path d="M53.1645 19.4555L45.2727 11.3242V0.060791L53.1645 7.36266V19.4555ZM46.1156 10.9567L52.3122 17.3381V7.75949L46.1156 2.03183V10.9567Z" fill="#6B9CF0"/>
<path d="M52.3125 19.4554V7.36583L60.2043 0.0639648V11.3176L52.3125 19.4554ZM53.1648 7.74639V17.325L59.3583 10.9436V2.01873L53.1648 7.74639Z" fill="#6B9CF0"/>
<path d="M60.2101 36.7263L52.3184 29.4245V17.3381L60.2101 25.4694V36.7263ZM53.1643 29.0342L59.3578 34.7586V25.8369L53.1643 19.4555V29.0342Z" fill="#6B9CF0"/>
<path d="M45.2633 36.7263V25.4726L53.1551 17.3413V29.4276L45.2633 36.7263ZM46.1156 25.8369V34.7585L52.3123 29.0341V19.4554L46.1156 25.8369Z" fill="#6B9CF0"/>
<path d="M63.4337 18.8342H51.7002L59.592 10.7029H70.5142L63.4337 18.8342ZM53.7552 17.956H63.0518L68.6107 11.5746H59.9613L53.7552 17.956Z" fill="#6B9CF0"/>
<path d="M70.5292 26.097H59.607L51.7152 17.9657H63.4329L70.5292 26.097ZM59.9574 25.2188H68.6194L63.0604 18.8341H53.7639L59.9574 25.2188Z" fill="#6B9CF0"/>
<path d="M45.8692 26.097H34.947L42.0338 17.9657H53.7642L45.8692 26.097ZM36.8537 25.2188H45.5157L51.7092 18.8341H42.4127L36.8537 25.2188Z" fill="#6B9CF0"/>
<path d="M53.7642 18.8342H42.0338L34.947 10.7029H45.8692L53.7642 18.8342ZM42.4 17.956H51.6965L45.503 11.5746H36.8537L42.4 17.956Z" fill="#6B9CF0"/>
<path d="M262.847 19.4555L254.955 11.3242V0.060791L262.847 7.36266V19.4555ZM255.798 10.9567L261.995 17.3381V7.75949L255.798 2.03183V10.9567Z" fill="#6B9CF0"/>
<path d="M261.995 19.4554V7.36583L269.887 0.0639648V11.3176L261.995 19.4554ZM262.847 7.74639V17.325L269.041 10.9436V2.01873L262.847 7.74639Z" fill="#6B9CF0"/>
<path d="M269.893 36.7263L262.001 29.4245V17.3381L269.893 25.4694V36.7263ZM262.847 29.0342L269.04 34.7586V25.8369L262.847 19.4555V29.0342Z" fill="#6B9CF0"/>
<path d="M254.946 36.7263V25.4726L262.838 17.3413V29.4276L254.946 36.7263ZM255.798 25.8369V34.7585L261.995 29.0341V19.4554L255.798 25.8369Z" fill="#6B9CF0"/>
<path d="M273.116 18.8342H261.383L269.274 10.7029H280.197L273.116 18.8342ZM263.438 17.956H272.734L278.293 11.5746H269.644L263.438 17.956Z" fill="#6B9CF0"/>
<path d="M280.212 26.097H269.289L261.398 17.9657H273.115L280.212 26.097ZM269.64 25.2188H278.302L272.743 18.8341H263.446L269.64 25.2188Z" fill="#6B9CF0"/>
<path d="M255.552 26.097H244.63L251.716 17.9657H263.447L255.552 26.097ZM246.536 25.2188H255.198L261.392 18.8341H252.095L246.536 25.2188Z" fill="#6B9CF0"/>
<path d="M263.447 18.8342H251.716L244.63 10.7029H255.552L263.447 18.8342ZM252.083 17.956H261.379L255.186 11.5746H246.536L252.083 17.956Z" fill="#6B9CF0"/>
<path d="M158.006 19.4555L150.114 11.3242V0.060791L158.006 7.36266V19.4555ZM150.957 10.9567L157.153 17.3381V7.75949L150.957 2.03183V10.9567Z" fill="#6B9CF0"/>
<path d="M157.154 19.4554V7.36583L165.045 0.0639648V11.3176L157.154 19.4554ZM158.006 7.74639V17.325L164.199 10.9436V2.01873L158.006 7.74639Z" fill="#6B9CF0"/>
<path d="M165.051 36.7263L157.16 29.4245V17.3381L165.051 25.4694V36.7263ZM158.006 29.0342L164.199 34.7586V25.8369L158.006 19.4555V29.0342Z" fill="#6B9CF0"/>
<path d="M150.105 36.7263V25.4726L157.996 17.3413V29.4276L150.105 36.7263ZM150.957 25.8369V34.7585L157.154 29.0341V19.4554L150.957 25.8369Z" fill="#6B9CF0"/>
<path d="M168.275 18.8342H156.541L164.433 10.7029H175.355L168.275 18.8342ZM158.596 17.956H167.893L173.452 11.5746H164.802L158.596 17.956Z" fill="#6B9CF0"/>
<path d="M175.371 26.097H164.448L156.557 17.9657H168.274L175.371 26.097ZM164.799 25.2188H173.461L167.902 18.8341H158.605L164.799 25.2188Z" fill="#6B9CF0"/>
<path d="M150.711 26.097H139.788L146.875 17.9657H158.605L150.711 26.097ZM141.695 25.2188H150.357L156.55 18.8341H147.254L141.695 25.2188Z" fill="#6B9CF0"/>
<path d="M158.605 18.8342H146.875L139.788 10.7029H150.711L158.605 18.8342ZM147.241 17.956H156.538L150.344 11.5746H141.695L147.241 17.956Z" fill="#6B9CF0"/>
<path d="M367.688 19.4555L359.796 11.3242V0.060791L367.688 7.36266V19.4555ZM360.639 10.9567L366.836 17.3381V7.75949L360.639 2.03183V10.9567Z" fill="#6B9CF0"/>
<path d="M366.836 19.4554V7.36583L374.728 0.0639648V11.3176L366.836 19.4554ZM367.688 7.74639V17.325L373.882 10.9436V2.01873L367.688 7.74639Z" fill="#6B9CF0"/>
<path d="M374.734 36.7263L366.842 29.4245V17.3381L374.734 25.4694V36.7263ZM367.688 29.0342L373.881 34.7586V25.8369L367.688 19.4555V29.0342Z" fill="#6B9CF0"/>
<path d="M359.787 36.7263V25.4726L367.679 17.3413V29.4276L359.787 36.7263ZM360.639 25.8369V34.7585L366.836 29.0341V19.4554L360.639 25.8369Z" fill="#6B9CF0"/>
<path d="M377.957 18.8342H366.224L374.116 10.7029H385.038L377.957 18.8342ZM368.279 17.956H377.575L383.134 11.5746H374.485L368.279 17.956Z" fill="#6B9CF0"/>
<path d="M385.053 26.097H374.131L366.239 17.9657H377.957L385.053 26.097ZM374.481 25.2188H383.143L377.584 18.8341H368.288L374.481 25.2188Z" fill="#6B9CF0"/>
<path d="M360.393 26.097H349.471L356.557 17.9657H368.288L360.393 26.097ZM351.377 25.2188H360.039L366.233 18.8341H356.936L351.377 25.2188Z" fill="#6B9CF0"/>
<path d="M368.288 18.8342H356.557L349.471 10.7029H360.393L368.288 18.8342ZM356.924 17.956H366.22L360.027 11.5746H351.377L356.924 17.956Z" fill="#6B9CF0"/>
<path d="M88.1116 19.4555L80.2198 11.3242V0.060791L88.1116 7.36266V19.4555ZM81.0627 10.9567L87.2593 17.3381V7.75949L81.0627 2.03183V10.9567Z" fill="#6B9CF0"/>
<path d="M87.2595 19.4554V7.36583L95.1513 0.0639648V11.3176L87.2595 19.4554ZM88.1118 7.74639V17.325L94.3053 10.9436V2.01873L88.1118 7.74639Z" fill="#6B9CF0"/>
<path d="M95.1572 36.7263L87.2654 29.4245V17.3381L95.1572 25.4694V36.7263ZM88.1114 29.0342L94.3048 34.7586V25.8369L88.1114 19.4555V29.0342Z" fill="#6B9CF0"/>
<path d="M80.2104 36.7263V25.4726L88.1022 17.3413V29.4276L80.2104 36.7263ZM81.0628 25.8369V34.7585L87.2594 29.0341V19.4554L81.0628 25.8369Z" fill="#6B9CF0"/>
<path d="M98.3807 18.8342H86.6472L94.539 10.7029H105.461L98.3807 18.8342ZM88.7022 17.956H97.9988L103.558 11.5746H94.9083L88.7022 17.956Z" fill="#6B9CF0"/>
<path d="M105.476 26.097H94.5541L86.6624 17.9657H98.3801L105.476 26.097ZM94.9045 25.2188H103.567L98.0076 18.8341H88.7111L94.9045 25.2188Z" fill="#6B9CF0"/>
<path d="M80.8164 26.097H69.8942L76.981 17.9657H88.7113L80.8164 26.097ZM71.8008 25.2188H80.4628L86.6563 18.8341H77.3598L71.8008 25.2188Z" fill="#6B9CF0"/>
<path d="M88.7113 18.8342H76.981L69.8942 10.7029H80.8164L88.7113 18.8342ZM77.3472 17.956H86.6437L80.4502 11.5746H71.8008L77.3472 17.956Z" fill="#6B9CF0"/>
<path d="M297.794 19.4555L289.902 11.3242V0.060791L297.794 7.36266V19.4555ZM290.745 10.9567L296.942 17.3381V7.75949L290.745 2.03183V10.9567Z" fill="#6B9CF0"/>
<path d="M296.942 19.4554V7.36583L304.834 0.0639648V11.3176L296.942 19.4554ZM297.794 7.74639V17.325L303.988 10.9436V2.01873L297.794 7.74639Z" fill="#6B9CF0"/>
<path d="M304.84 36.7263L296.948 29.4245V17.3381L304.84 25.4694V36.7263ZM297.794 29.0342L303.987 34.7586V25.8369L297.794 19.4555V29.0342Z" fill="#6B9CF0"/>
<path d="M289.893 36.7263V25.4726L297.785 17.3413V29.4276L289.893 36.7263ZM290.745 25.8369V34.7585L296.942 29.0341V19.4554L290.745 25.8369Z" fill="#6B9CF0"/>
<path d="M308.063 18.8342H296.33L304.221 10.7029H315.144L308.063 18.8342ZM298.385 17.956H307.681L313.24 11.5746H304.591L298.385 17.956Z" fill="#6B9CF0"/>
<path d="M315.159 26.097H304.237L296.345 17.9657H308.063L315.159 26.097ZM304.587 25.2188H313.249L307.69 18.8341H298.394L304.587 25.2188Z" fill="#6B9CF0"/>
<path d="M290.499 26.097H279.577L286.663 17.9657H298.394L290.499 26.097ZM281.483 25.2188H290.145L296.339 18.8341H287.042L281.483 25.2188Z" fill="#6B9CF0"/>
<path d="M298.394 18.8342H286.663L279.577 10.7029H290.499L298.394 18.8342ZM287.03 17.956H296.326L290.133 11.5746H281.483L287.03 17.956Z" fill="#6B9CF0"/>
<path d="M192.953 19.4555L185.061 11.3242V0.060791L192.953 7.36266V19.4555ZM185.904 10.9567L192.1 17.3381V7.75949L185.904 2.03183V10.9567Z" fill="#6B9CF0"/>
<path d="M192.101 19.4554V7.36583L199.993 0.0639648V11.3176L192.101 19.4554ZM192.953 7.74639V17.325L199.147 10.9436V2.01873L192.953 7.74639Z" fill="#6B9CF0"/>
<path d="M199.998 36.7263L192.107 29.4245V17.3381L199.998 25.4694V36.7263ZM192.953 29.0342L199.146 34.7586V25.8369L192.953 19.4555V29.0342Z" fill="#6B9CF0"/>
<path d="M185.052 36.7263V25.4726L192.943 17.3413V29.4276L185.052 36.7263ZM185.904 25.8369V34.7585L192.101 29.0341V19.4554L185.904 25.8369Z" fill="#6B9CF0"/>
<path d="M203.222 18.8342H191.488L199.38 10.7029H210.302L203.222 18.8342ZM193.543 17.956H202.84L208.399 11.5746H199.75L193.543 17.956Z" fill="#6B9CF0"/>
<path d="M210.318 26.097H199.395L191.504 17.9657H203.221L210.318 26.097ZM199.746 25.2188H208.408L202.849 18.8341H193.552L199.746 25.2188Z" fill="#6B9CF0"/>
<path d="M185.658 26.097H174.735L181.822 17.9657H193.553L185.658 26.097ZM176.642 25.2188H185.304L191.497 18.8341H182.201L176.642 25.2188Z" fill="#6B9CF0"/>
<path d="M193.553 18.8342H181.822L174.735 10.7029H185.658L193.553 18.8342ZM182.188 17.956H191.485L185.291 11.5746H176.642L182.188 17.956Z" fill="#6B9CF0"/>
<path d="M402.635 19.4555L394.743 11.3242V0.060791L402.635 7.36266V19.4555ZM395.586 10.9567L401.783 17.3381V7.75949L395.586 2.03183V10.9567Z" fill="#6B9CF0"/>
<path d="M401.783 19.4554V7.36583L409.675 0.0639648V11.3176L401.783 19.4554ZM402.636 7.74639V17.325L408.829 10.9436V2.01873L402.636 7.74639Z" fill="#6B9CF0"/>
<path d="M409.681 36.7263L401.789 29.4245V17.3381L409.681 25.4694V36.7263ZM402.635 29.0342L408.828 34.7586V25.8369L402.635 19.4555V29.0342Z" fill="#6B9CF0"/>
<path d="M394.734 36.7263V25.4726L402.626 17.3413V29.4276L394.734 36.7263ZM395.586 25.8369V34.7585L401.783 29.0341V19.4554L395.586 25.8369Z" fill="#6B9CF0"/>
<path d="M412.904 18.8342H401.171L409.063 10.7029H419.985L412.904 18.8342ZM403.226 17.956H412.522L418.081 11.5746H409.432L403.226 17.956Z" fill="#6B9CF0"/>
<path d="M420 26.097H409.078L401.186 17.9657H412.904L420 26.097ZM409.428 25.2188H418.09L412.531 18.8341H403.235L409.428 25.2188Z" fill="#6B9CF0"/>
<path d="M395.34 26.097H384.418L391.504 17.9657H403.235L395.34 26.097ZM386.324 25.2188H394.986L401.18 18.8341H391.883L386.324 25.2188Z" fill="#6B9CF0"/>
<path d="M403.235 18.8342H391.504L384.418 10.7029H395.34L403.235 18.8342ZM391.871 17.956H401.167L394.974 11.5746H386.324L391.871 17.956Z" fill="#6B9CF0"/>
</svg>
