<svg width="315" height="27" viewBox="0 0 315 27" fill="none" xmlns="http://www.w3.org/2000/svg">
<path d="M26.7082 13.2871L13.7871 26.2082L0.5 12.9211L13.4211 8.45104e-06L26.7082 13.2871ZM13.7522 23.2817L23.7817 13.2523L13.4669 2.93745L3.43737 12.9669L13.7522 23.2817Z" fill="#FFD801"/>
<path d="M15.5615 13.1392L8.1398 20.5609L0.5 12.9211L7.92171 5.49937L15.5615 13.1392ZM8.09946 17.629L12.635 13.0935L7.97292 8.43139L3.43737 12.9669L8.09946 17.629Z" fill="#FFD801"/>
<path d="M131.541 13.2871L118.62 26.2082L105.333 12.9211L118.254 6.94862e-05L131.541 13.2871ZM118.585 23.2818L128.615 13.2523L118.3 2.93751L108.27 12.967L118.585 23.2818Z" fill="#FFD801"/>
<path d="M120.395 13.1392L112.973 20.5609L105.333 12.9211L112.755 5.49943L120.395 13.1392ZM112.932 17.6291L117.468 13.0935L112.806 8.43145L108.27 12.967L112.932 17.6291Z" fill="#FFD801"/>
<path d="M236.375 13.287L223.454 26.2081L210.167 12.921L223.088 -5.25841e-05L236.375 13.287ZM223.419 23.2817L233.449 13.2522L223.134 2.93739L213.104 12.9669L223.419 23.2817Z" fill="#FFD801"/>
<path d="M225.228 13.1391L217.807 20.5608L210.167 12.921L217.589 5.49931L225.228 13.1391ZM217.766 17.629L222.302 13.0934L217.64 8.43132L213.104 12.9669L217.766 17.629Z" fill="#FFD801"/>
<path d="M79.1251 13.287L66.2041 26.2081L52.917 12.921L65.8381 -5.25841e-05L79.1251 13.287ZM66.1692 23.2817L76.1987 13.2522L65.8838 2.93739L55.8544 12.9669L66.1692 23.2817Z" fill="#FFD801"/>
<path d="M67.9785 13.1391L60.5568 20.5608L52.917 12.921L60.3387 5.49931L67.9785 13.1391ZM60.5165 17.629L65.052 13.0934L60.3899 8.43132L55.8544 12.9669L60.5165 17.629Z" fill="#FFD801"/>
<path d="M183.958 13.2871L171.037 26.2082L157.75 12.9211L170.671 6.94862e-05L183.958 13.2871ZM171.002 23.2818L181.032 13.2523L170.717 2.93751L160.687 12.967L171.002 23.2818Z" fill="#FFD801"/>
<path d="M172.812 13.1392L165.39 20.5609L157.75 12.9211L165.172 5.49943L172.812 13.1392ZM165.349 17.6291L169.885 13.0935L165.223 8.43145L160.687 12.967L165.349 17.6291Z" fill="#FFD801"/>
<path d="M288.792 13.2871L275.871 26.2082L262.584 12.9211L275.505 8.45104e-06L288.792 13.2871ZM275.836 23.2817L285.866 13.2523L275.551 2.93745L265.521 12.9669L275.836 23.2817Z" fill="#FFD801"/>
<path d="M277.645 13.1392L270.224 20.5609L262.584 12.9211L270.006 5.49937L277.645 13.1392ZM270.183 17.629L274.719 13.0935L270.057 8.43139L265.521 12.9669L270.183 17.629Z" fill="#FFD801"/>
<path d="M52.9171 13.2871L39.9961 26.2082L26.709 12.9211L39.6301 8.45104e-06L52.9171 13.2871ZM39.9612 23.2817L49.9907 13.2523L39.6758 2.93745L29.6464 12.9669L39.9612 23.2817Z" fill="#FFD801"/>
<path d="M41.7705 13.1392L34.3488 20.5609L26.709 12.9211L34.1307 5.49937L41.7705 13.1392ZM34.3084 17.629L38.844 13.0935L34.1819 8.43139L29.6464 12.9669L34.3084 17.629Z" fill="#FFD801"/>
<path d="M157.75 13.287L144.829 26.2081L131.542 12.921L144.463 -5.25841e-05L157.75 13.287ZM144.794 23.2817L154.824 13.2522L144.509 2.93739L134.479 12.9669L144.794 23.2817Z" fill="#FFD801"/>
<path d="M146.603 13.1391L139.182 20.5608L131.542 12.921L138.964 5.49931L146.603 13.1391ZM139.141 17.629L143.677 13.0934L139.015 8.43132L134.479 12.9669L139.141 17.629Z" fill="#FFD801"/>
<path d="M262.583 13.2871L249.662 26.2082L236.375 12.9211L249.296 6.94862e-05L262.583 13.2871ZM249.627 23.2818L259.657 13.2523L249.342 2.93751L239.312 12.967L249.627 23.2818Z" fill="#FFD801"/>
<path d="M251.437 13.1392L244.015 20.5609L236.375 12.9211L243.797 5.49943L251.437 13.1392ZM243.974 17.6291L248.51 13.0935L243.848 8.43145L239.312 12.967L243.974 17.6291Z" fill="#FFD801"/>
<path d="M105.333 13.2871L92.4121 26.2082L79.125 12.9211L92.0461 6.94862e-05L105.333 13.2871ZM92.3772 23.2818L102.407 13.2523L92.0919 2.93751L82.0624 12.967L92.3772 23.2818Z" fill="#FFD801"/>
<path d="M94.1865 13.1392L86.7648 20.5609L79.125 12.9211L86.5467 5.49943L94.1865 13.1392ZM86.7245 17.6291L91.26 13.0935L86.5979 8.43145L82.0624 12.967L86.7245 17.6291Z" fill="#FFD801"/>
<path d="M210.166 13.2871L197.245 26.2082L183.958 12.9211L196.879 6.94862e-05L210.166 13.2871ZM197.21 23.2818L207.24 13.2523L196.925 2.93751L186.895 12.967L197.21 23.2818Z" fill="#FFD801"/>
<path d="M199.02 13.1392L191.598 20.5609L183.958 12.9211L191.38 5.49943L199.02 13.1392ZM191.557 17.6291L196.093 13.0935L191.431 8.43145L186.895 12.967L191.557 17.6291Z" fill="#FFD801"/>
<path d="M315 13.2871L302.079 26.2082L288.792 12.9211L301.713 6.94862e-05L315 13.2871ZM302.044 23.2818L312.074 13.2523L301.759 2.93751L291.729 12.967L302.044 23.2818Z" fill="#FFD801"/>
<path d="M303.853 13.1392L296.432 20.5609L288.792 12.9211L296.214 5.49943L303.853 13.1392ZM296.391 17.6291L300.927 13.0935L296.265 8.43145L291.729 12.967L296.391 17.6291Z" fill="#FFD801"/>
</svg>
