<svg width="420" height="35" viewBox="0 0 420 35" fill="none" xmlns="http://www.w3.org/2000/svg">
<path d="M34.9997 17.2488L17.7443 34.0226L0 16.7737L17.2555 -7.35054e-05L34.9997 17.2488ZM17.6977 30.2236L31.0916 17.2036L17.3166 3.81322L3.92272 16.8332L17.6977 30.2236Z" fill="#FFD801"/>
<path d="M20.1139 17.0568L10.2026 26.6914L0 16.7737L9.91134 7.13904L20.1139 17.0568ZM10.1487 22.8854L16.2057 16.9975L9.97972 10.9453L3.92272 16.8332L10.1487 22.8854Z" fill="#FFD801"/>
<path d="M174.999 17.2491L157.744 34.0228L140 16.7739L157.255 0.000170635L174.999 17.2491ZM157.697 30.2238L171.091 17.2038L157.316 3.81346L143.922 16.8334L157.697 30.2238Z" fill="#FFD801"/>
<path d="M160.114 17.057L150.202 26.6917L140 16.7739L149.911 7.13928L160.114 17.057ZM150.148 22.8856L156.205 16.9977L149.979 10.9455L143.922 16.8334L150.148 22.8856Z" fill="#FFD801"/>
<path d="M315 17.2488L297.745 34.0226L280 16.7737L297.256 -7.35054e-05L315 17.2488ZM297.698 30.2236L311.092 17.2036L297.317 3.81322L283.923 16.8332L297.698 30.2236Z" fill="#FFD801"/>
<path d="M300.114 17.0568L290.203 26.6914L280 16.7737L289.912 7.13904L300.114 17.0568ZM290.149 22.8854L296.206 16.9975L289.98 10.9453L283.923 16.8332L290.149 22.8854Z" fill="#FFD801"/>
<path d="M105 17.2488L87.7447 34.0226L70.0005 16.7737L87.256 -7.35054e-05L105 17.2488ZM87.6981 30.2236L101.092 17.2036L87.3171 3.81322L73.9232 16.8332L87.6981 30.2236Z" fill="#FFD801"/>
<path d="M90.1144 17.0568L80.2031 26.6914L70.0005 16.7737L79.9118 7.13904L90.1144 17.0568ZM80.1492 22.8854L86.2062 16.9975L79.9802 10.9453L73.9232 16.8332L80.1492 22.8854Z" fill="#FFD801"/>
<path d="M245 17.2491L227.744 34.0228L210 16.7739L227.255 0.000170635L245 17.2491ZM227.698 30.2238L241.092 17.2038L227.317 3.81346L213.923 16.8334L227.698 30.2238Z" fill="#FFD801"/>
<path d="M230.114 17.057L220.203 26.6917L210 16.7739L219.911 7.13928L230.114 17.057ZM220.149 22.8856L226.206 16.9977L219.98 10.9455L213.923 16.8334L220.149 22.8856Z" fill="#FFD801"/>
<path d="M385 17.2488L367.745 34.0226L350.001 16.7737L367.256 -7.35054e-05L385 17.2488ZM367.698 30.2236L381.092 17.2036L367.317 3.81322L353.923 16.8332L367.698 30.2236Z" fill="#FFD801"/>
<path d="M370.115 17.0568L360.203 26.6914L350.001 16.7737L359.912 7.13904L370.115 17.0568ZM360.149 22.8854L366.206 16.9975L359.98 10.9453L353.923 16.8332L360.149 22.8854Z" fill="#FFD801"/>
<path d="M70.001 17.2488L52.7455 34.0226L35.0012 16.7737L52.2567 -7.35054e-05L70.001 17.2488ZM52.6989 30.2236L66.0928 17.2036L52.3178 3.81322L38.9239 16.8332L52.6989 30.2236Z" fill="#FFD801"/>
<path d="M55.1151 17.0568L45.2038 26.6914L35.0012 16.7737L44.9126 7.13904L55.1151 17.0568ZM45.1499 22.8854L51.2069 16.9975L44.9809 10.9453L38.9239 16.8332L45.1499 22.8854Z" fill="#FFD801"/>
<path d="M210 17.2488L192.745 34.0226L175 16.7737L192.256 -7.35054e-05L210 17.2488ZM192.698 30.2236L206.092 17.2036L192.317 3.81322L178.923 16.8332L192.698 30.2236Z" fill="#FFD801"/>
<path d="M195.114 17.0568L185.203 26.6914L175 16.7737L184.912 7.13904L195.114 17.0568ZM185.149 22.8854L191.206 16.9975L184.98 10.9453L178.923 16.8332L185.149 22.8854Z" fill="#FFD801"/>
<path d="M349.999 17.2491L332.744 34.0228L315 16.7739L332.255 0.000170635L349.999 17.2491ZM332.697 30.2238L346.091 17.2038L332.316 3.81346L318.922 16.8334L332.697 30.2238Z" fill="#FFD801"/>
<path d="M335.114 17.057L325.202 26.6917L315 16.7739L324.911 7.13928L335.114 17.057ZM325.148 22.8856L331.205 16.9977L324.979 10.9455L318.922 16.8334L325.148 22.8856Z" fill="#FFD801"/>
<path d="M140 17.2491L122.744 34.0228L105 16.7739L122.255 0.000170635L140 17.2491ZM122.698 30.2238L136.092 17.2038L122.317 3.81346L108.923 16.8334L122.698 30.2238Z" fill="#FFD801"/>
<path d="M125.114 17.057L115.203 26.6917L105 16.7739L114.911 7.13928L125.114 17.057ZM115.149 22.8856L121.206 16.9977L114.98 10.9455L108.923 16.8334L115.149 22.8856Z" fill="#FFD801"/>
<path d="M279.999 17.2491L262.744 34.0228L245 16.7739L262.255 0.000170635L279.999 17.2491ZM262.697 30.2238L276.091 17.2038L262.316 3.81346L248.922 16.8334L262.697 30.2238Z" fill="#FFD801"/>
<path d="M265.113 17.057L255.202 26.6917L245 16.7739L254.911 7.13928L265.113 17.057ZM255.148 22.8856L261.205 16.9977L254.979 10.9455L248.922 16.8334L255.148 22.8856Z" fill="#FFD801"/>
<path d="M420 17.2491L402.745 34.0228L385 16.7739L402.256 0.000170635L420 17.2491ZM402.698 30.2238L416.092 17.2038L402.317 3.81346L388.923 16.8334L402.698 30.2238Z" fill="#FFD801"/>
<path d="M405.114 17.057L395.203 26.6917L385 16.7739L394.912 7.13928L405.114 17.057ZM395.149 22.8856L401.206 16.9977L394.98 10.9455L388.923 16.8334L395.149 22.8856Z" fill="#FFD801"/>
</svg>
