<svg width="55" height="55" viewBox="0 0 55 55" fill="none" xmlns="http://www.w3.org/2000/svg">
<path fill-rule="evenodd" clip-rule="evenodd" d="M5.02697 5.02551L5.02549 5.02698C3.02584 7.02209 1.98495 9.57512 1.4542 13.19C0.918905 16.8359 0.916667 21.4453 0.916667 27.4949C0.916667 33.5447 0.918905 38.1542 1.45421 41.8014C1.98496 45.4175 3.02594 47.9735 5.02622 49.9738L5.02697 49.9747C7.02206 51.9742 9.57501 53.0153 13.19 53.5459C16.8359 54.0811 21.4452 54.0835 27.4949 54.0835C33.5447 54.0835 38.154 54.0811 41.8012 53.5459C45.4174 53.0153 47.9732 51.9742 49.9737 49.9738C51.974 47.9735 53.0151 45.4197 53.5456 41.8051C54.0808 38.1593 54.0832 33.5497 54.0832 27.4949C54.0832 21.4403 54.0808 16.8309 53.5456 13.1851C53.0151 9.57038 51.974 7.01672 49.9737 5.01627C47.9734 3.02094 45.4198 1.98251 41.8051 1.453C38.1591 0.918899 33.5495 0.916668 27.4949 0.916668C21.4402 0.916668 16.8309 0.918915 13.1863 1.4542C9.57286 1.98491 7.02221 3.0257 5.02697 5.02551ZM50.6218 4.3681C54.9998 8.74616 55 15.4379 55 27.4949C55 39.5522 54.9998 46.244 50.6218 50.6221C46.2437 55 39.5421 55 27.4949 55C15.4478 55 8.74609 55 4.37806 50.6221C0 46.244 0 39.5422 0 27.4949C0 15.4479 0 8.74616 4.37806 4.37806C8.74609 0 15.4378 0 27.4949 0C39.5521 0 46.2437 0 50.6218 4.3681Z" fill="white"/>
<path d="M35.0764 30.3573C33.2996 34.3085 32.2056 38.6717 31.7394 43.6775H22.8392C22.6048 40.2857 22.1643 35.4274 19.9248 30.3601C19.4666 29.3281 18.9468 28.307 18.3762 27.3185C18.9539 26.2187 19.4764 25.0908 19.9328 23.9575C21.5233 20.0116 22.4737 15.8712 22.8348 11.3225H31.7421C32.1397 15.2321 33.3112 19.6921 35.0675 23.9638C35.532 25.0899 36.0544 26.2151 36.6276 27.3185C36.0588 28.3097 35.54 29.3299 35.0764 30.3573ZM37.9204 27.0162C37.3016 25.8458 36.7373 24.6418 36.2416 23.4442C34.4452 19.0775 33.2799 14.517 32.9599 10.6047C32.9305 10.2626 32.655 10 32.3224 10H22.2428C21.9102 10 21.6312 10.2671 21.6062 10.6147C21.2951 15.262 20.3617 19.4604 18.7551 23.4487C18.2701 24.6518 17.7076 25.8512 17.0808 27.0108C16.9685 27.2225 16.9738 27.4778 17.0932 27.6815C17.7182 28.727 18.2781 29.8133 18.7639 30.9104C21.0472 36.0746 21.3708 40.8777 21.6061 44.3854C21.6312 44.7312 21.9101 45 22.2427 45H32.3223C32.6549 45 32.9304 44.7384 32.9598 44.3954C33.377 39.29 34.4495 34.8815 36.2344 30.9167C36.7265 29.8196 37.29 28.7315 37.9069 27.677C38.0255 27.4761 38.0317 27.2253 37.9203 27.0162" fill="white"/>
<path d="M33.7783 30.0954C34.1425 29.1793 34.5518 28.2676 35 27.3833C34.8789 27.1442 34.7534 26.8978 34.6243 26.6488C34.2495 25.9276 33.8596 25.1789 33.5661 24.3744C32.2984 20.8888 31.4126 17.2694 31.0174 14L24 42H30.9175C31.1527 39.4314 31.8316 34.9801 33.7783 30.0954Z" fill="white"/>
</svg>
