<svg width="1300" height="14" viewBox="0 0 1300 14" fill="none" xmlns="http://www.w3.org/2000/svg">
<path d="M13.5416 6.67612L6.86534 -0.000101402L0 6.86523L6.67622 13.5415L13.5416 6.67612ZM6.84731 1.51196L12.0295 6.69412L6.69988 12.0237L1.51772 6.84155L6.84731 1.51196Z" fill="#6B9CF0"/>
<path d="M7.78217 6.75255L3.94743 2.91781L0 6.86523L3.83474 10.7L7.78217 6.75255ZM3.92658 4.43268L6.27007 6.77616L3.8612 9.18503L1.51772 6.84155L3.92658 4.43268Z" fill="#6B9CF0"/>
<path d="M67.7134 6.6771L61.0372 0.000875161L54.1719 6.86621L60.8481 13.5424L67.7134 6.6771ZM61.0192 1.51294L66.2013 6.69509L60.8718 12.0247L55.6896 6.84252L61.0192 1.51294Z" fill="#6B9CF0"/>
<path d="M61.954 6.75353L58.1193 2.91878L54.1719 6.86621L58.0066 10.701L61.954 6.75353ZM58.0985 4.43366L60.4419 6.77714L58.0331 9.186L55.6896 6.84252L58.0985 4.43366Z" fill="#6B9CF0"/>
<path d="M121.872 6.6771L115.195 0.000875161L108.33 6.86621L115.006 13.5424L121.872 6.6771ZM115.177 1.51294L120.36 6.69509L115.03 12.0247L109.848 6.84252L115.177 1.51294Z" fill="#6B9CF0"/>
<path d="M116.112 6.75353L112.278 2.91878L108.33 6.86621L112.165 10.701L116.112 6.75353ZM112.257 4.43366L114.6 6.77714L112.191 9.186L109.848 6.84252L112.257 4.43366Z" fill="#6B9CF0"/>
<path d="M40.6197 6.6771L33.9435 0.000875161L27.0781 6.86621L33.7543 13.5424L40.6197 6.6771ZM33.9254 1.51294L39.1076 6.69509L33.778 12.0247L28.5958 6.84252L33.9254 1.51294Z" fill="#6B9CF0"/>
<path d="M34.8603 6.75353L31.0256 2.91878L27.0781 6.86621L30.9129 10.701L34.8603 6.75353ZM31.0047 4.43366L33.3482 6.77714L30.9393 9.186L28.5958 6.84252L31.0047 4.43366Z" fill="#6B9CF0"/>
<path d="M94.7916 6.67612L88.1153 -0.000101402L81.25 6.86523L87.9262 13.5415L94.7916 6.67612ZM88.0973 1.51196L93.2795 6.69412L87.9499 12.0237L82.7677 6.84155L88.0973 1.51196Z" fill="#6B9CF0"/>
<path d="M89.0322 6.75255L85.1974 2.91781L81.25 6.86523L85.0847 10.7L89.0322 6.75255ZM85.1766 4.43268L87.5201 6.77616L85.1112 9.18503L82.7677 6.84155L85.1766 4.43268Z" fill="#6B9CF0"/>
<path d="M148.961 6.67661L142.285 0.000386879L135.42 6.86572L142.096 13.5419L148.961 6.67661ZM142.267 1.51245L147.449 6.69461L142.12 12.0242L136.938 6.84203L142.267 1.51245Z" fill="#6B9CF0"/>
<path d="M143.202 6.75304L139.367 2.9183L135.42 6.86572L139.255 10.7005L143.202 6.75304ZM139.347 4.43317L141.69 6.77665L139.281 9.18552L136.938 6.84203L139.347 4.43317Z" fill="#6B9CF0"/>
<path d="M27.0884 6.6771L20.4122 0.000875161L13.5469 6.86621L20.2231 13.5424L27.0884 6.6771ZM20.3942 1.51294L25.5763 6.69509L20.2468 12.0247L15.0646 6.84252L20.3942 1.51294Z" fill="#6B9CF0"/>
<path d="M21.329 6.75353L17.4943 2.91878L13.5469 6.86621L17.3816 10.701L21.329 6.75353ZM17.4735 4.43366L19.8169 6.77714L17.4081 9.186L15.0646 6.84252L17.4735 4.43366Z" fill="#6B9CF0"/>
<path d="M81.2447 6.6771L74.5685 0.000875161L67.7031 6.86621L74.3793 13.5424L81.2447 6.6771ZM74.5504 1.51294L79.7326 6.69509L74.403 12.0247L69.2208 6.84252L74.5504 1.51294Z" fill="#6B9CF0"/>
<path d="M75.4853 6.75353L71.6506 2.91878L67.7031 6.86621L71.5379 10.701L75.4853 6.75353ZM71.6297 4.43366L73.9732 6.77714L71.5643 9.186L69.2208 6.84252L71.6297 4.43366Z" fill="#6B9CF0"/>
<path d="M135.417 6.67661L128.74 0.000386879L121.875 6.86572L128.551 13.5419L135.417 6.67661ZM128.722 1.51245L133.904 6.69461L128.575 12.0242L123.393 6.84203L128.722 1.51245Z" fill="#6B9CF0"/>
<path d="M129.657 6.75304L125.822 2.9183L121.875 6.86572L125.71 10.7005L129.657 6.75304ZM125.802 4.43317L128.145 6.77665L125.736 9.18552L123.393 6.84203L125.802 4.43317Z" fill="#6B9CF0"/>
<path d="M54.1666 6.67612L47.4903 -0.000101402L40.625 6.86523L47.3012 13.5415L54.1666 6.67612ZM47.4723 1.51196L52.6545 6.69412L47.3249 12.0237L42.1427 6.84155L47.4723 1.51196Z" fill="#6B9CF0"/>
<path d="M48.4072 6.75255L44.5724 2.91781L40.625 6.86523L44.4597 10.7L48.4072 6.75255ZM44.5516 4.43268L46.8951 6.77616L44.4862 9.18503L42.1427 6.84155L44.5516 4.43268Z" fill="#6B9CF0"/>
<path d="M108.337 6.67661L101.661 0.000386879L94.7959 6.86572L101.472 13.5419L108.337 6.67661ZM101.643 1.51245L106.825 6.69461L101.496 12.0242L96.3136 6.84203L101.643 1.51245Z" fill="#6B9CF0"/>
<path d="M102.578 6.75304L98.7433 2.9183L94.7959 6.86572L98.6306 10.7005L102.578 6.75304ZM98.7225 4.43317L101.066 6.77665L98.6571 9.18552L96.3136 6.84203L98.7225 4.43317Z" fill="#6B9CF0"/>
<path d="M162.497 6.6771L155.82 0.000875161L148.955 6.86621L155.631 13.5424L162.497 6.6771ZM155.802 1.51294L160.985 6.69509L155.655 12.0247L150.473 6.84252L155.802 1.51294Z" fill="#6B9CF0"/>
<path d="M156.737 6.75353L152.903 2.91878L148.955 6.86621L152.79 10.701L156.737 6.75353ZM152.882 4.43366L155.225 6.77714L152.816 9.186L150.473 6.84252L152.882 4.43366Z" fill="#6B9CF0"/>
<path d="M176.041 6.67661L169.364 0.000386879L162.499 6.86572L169.175 13.5419L176.041 6.67661ZM169.346 1.51245L174.528 6.69461L169.199 12.0242L164.017 6.84203L169.346 1.51245Z" fill="#6B9CF0"/>
<path d="M170.281 6.75304L166.446 2.9183L162.499 6.86572L166.334 10.7005L170.281 6.75304ZM166.426 4.43317L168.769 6.77665L166.36 9.18552L164.017 6.84203L166.426 4.43317Z" fill="#6B9CF0"/>
<path d="M230.21 6.6771L223.533 0.000875161L216.668 6.86621L223.344 13.5424L230.21 6.6771ZM223.515 1.51294L228.697 6.69509L223.368 12.0247L218.186 6.84252L223.515 1.51294Z" fill="#6B9CF0"/>
<path d="M224.45 6.75353L220.615 2.91878L216.668 6.86621L220.503 10.701L224.45 6.75353ZM220.595 4.43366L222.938 6.77714L220.529 9.186L218.186 6.84252L220.595 4.43366Z" fill="#6B9CF0"/>
<path d="M284.372 6.67661L277.695 0.000386879L270.83 6.86572L277.506 13.5419L284.372 6.67661ZM277.677 1.51245L282.86 6.69461L277.53 12.0242L272.348 6.84203L277.677 1.51245Z" fill="#6B9CF0"/>
<path d="M278.612 6.75304L274.778 2.9183L270.83 6.86572L274.665 10.7005L278.612 6.75304ZM274.757 4.43317L277.1 6.77665L274.691 9.18552L272.348 6.84203L274.757 4.43317Z" fill="#6B9CF0"/>
<path d="M203.121 6.67661L196.444 0.000386879L189.579 6.86572L196.255 13.5419L203.121 6.67661ZM196.426 1.51245L201.609 6.69461L196.279 12.0242L191.097 6.84203L196.426 1.51245Z" fill="#6B9CF0"/>
<path d="M197.361 6.75304L193.527 2.9183L189.579 6.86572L193.414 10.7005L197.361 6.75304ZM193.506 4.43317L195.849 6.77665L193.44 9.18552L191.097 6.84203L193.506 4.43317Z" fill="#6B9CF0"/>
<path d="M257.291 6.67661L250.614 0.000386879L243.749 6.86572L250.425 13.5419L257.291 6.67661ZM250.596 1.51245L255.778 6.69461L250.449 12.0242L245.267 6.84203L250.596 1.51245Z" fill="#6B9CF0"/>
<path d="M251.531 6.75304L247.696 2.9183L243.749 6.86572L247.584 10.7005L251.531 6.75304ZM247.676 4.43317L250.019 6.77665L247.61 9.18552L245.267 6.84203L247.676 4.43317Z" fill="#6B9CF0"/>
<path d="M311.46 6.6771L304.783 0.000875161L297.918 6.86621L304.594 13.5424L311.46 6.6771ZM304.765 1.51294L309.947 6.69509L304.618 12.0247L299.436 6.84252L304.765 1.51294Z" fill="#6B9CF0"/>
<path d="M305.7 6.75353L301.865 2.91878L297.918 6.86621L301.753 10.701L305.7 6.75353ZM301.845 4.43366L304.188 6.77714L301.779 9.186L299.436 6.84252L301.845 4.43366Z" fill="#6B9CF0"/>
<path d="M189.586 6.6771L182.909 0.000875161L176.044 6.86621L182.72 13.5424L189.586 6.6771ZM182.891 1.51294L188.073 6.69509L182.744 12.0247L177.562 6.84252L182.891 1.51294Z" fill="#6B9CF0"/>
<path d="M183.826 6.75353L179.991 2.91878L176.044 6.86621L179.879 10.701L183.826 6.75353ZM179.971 4.43366L182.314 6.77714L179.905 9.186L177.562 6.84252L179.971 4.43366Z" fill="#6B9CF0"/>
<path d="M243.747 6.67661L237.07 0.000386879L230.205 6.86572L236.881 13.5419L243.747 6.67661ZM237.052 1.51245L242.235 6.69461L236.905 12.0242L231.723 6.84203L237.052 1.51245Z" fill="#6B9CF0"/>
<path d="M237.987 6.75304L234.153 2.9183L230.205 6.86572L234.04 10.7005L237.987 6.75304ZM234.132 4.43317L236.475 6.77665L234.066 9.18552L231.723 6.84203L234.132 4.43317Z" fill="#6B9CF0"/>
<path d="M297.916 6.67661L291.239 0.000386879L284.374 6.86572L291.05 13.5419L297.916 6.67661ZM291.221 1.51245L296.403 6.69461L291.074 12.0242L285.892 6.84203L291.221 1.51245Z" fill="#6B9CF0"/>
<path d="M292.156 6.75304L288.321 2.9183L284.374 6.86572L288.209 10.7005L292.156 6.75304ZM288.301 4.43317L290.644 6.77665L288.235 9.18552L285.892 6.84203L288.301 4.43317Z" fill="#6B9CF0"/>
<path d="M216.666 6.67661L209.989 0.000386879L203.124 6.86572L209.8 13.5419L216.666 6.67661ZM209.971 1.51245L215.153 6.69461L209.824 12.0242L204.642 6.84203L209.971 1.51245Z" fill="#6B9CF0"/>
<path d="M210.906 6.75304L207.071 2.9183L203.124 6.86572L206.959 10.7005L210.906 6.75304ZM207.051 4.43317L209.394 6.77665L206.985 9.18552L204.642 6.84203L207.051 4.43317Z" fill="#6B9CF0"/>
<path d="M270.835 6.6771L264.158 0.000875161L257.293 6.86621L263.969 13.5424L270.835 6.6771ZM264.14 1.51294L269.322 6.69509L263.993 12.0247L258.811 6.84252L264.14 1.51294Z" fill="#6B9CF0"/>
<path d="M265.075 6.75353L261.24 2.91878L257.293 6.86621L261.128 10.701L265.075 6.75353ZM261.22 4.43366L263.563 6.77714L261.154 9.186L258.811 6.84252L261.22 4.43366Z" fill="#6B9CF0"/>
<path d="M324.999 6.6771L318.322 0.000875161L311.457 6.86621L318.133 13.5424L324.999 6.6771ZM318.304 1.51294L323.486 6.69509L318.157 12.0247L312.975 6.84252L318.304 1.51294Z" fill="#6B9CF0"/>
<path d="M319.239 6.75353L315.404 2.91878L311.457 6.86621L315.292 10.701L319.239 6.75353ZM315.384 4.43366L317.727 6.77714L315.318 9.186L312.975 6.84252L315.384 4.43366Z" fill="#6B9CF0"/>
<path d="M338.545 6.6771L331.869 0.000875161L325.004 6.86621L331.68 13.5424L338.545 6.6771ZM331.851 1.51294L337.033 6.69509L331.704 12.0247L326.522 6.84252L331.851 1.51294Z" fill="#6B9CF0"/>
<path d="M332.786 6.75353L328.951 2.91878L325.004 6.86621L328.839 10.701L332.786 6.75353ZM328.93 4.43366L331.274 6.77714L328.865 9.186L326.522 6.84252L328.93 4.43366Z" fill="#6B9CF0"/>
<path d="M392.715 6.6771L386.039 0.000875161L379.174 6.86621L385.85 13.5424L392.715 6.6771ZM386.021 1.51294L391.203 6.69509L385.874 12.0247L380.692 6.84252L386.021 1.51294Z" fill="#6B9CF0"/>
<path d="M386.956 6.75353L383.121 2.91878L379.174 6.86621L383.009 10.701L386.956 6.75353ZM383.1 4.43366L385.444 6.77714L383.035 9.186L380.692 6.84252L383.1 4.43366Z" fill="#6B9CF0"/>
<path d="M446.877 6.67759L440.2 0.00136344L433.335 6.8667L440.011 13.5429L446.877 6.67759ZM440.182 1.51342L445.364 6.69558L440.035 12.0252L434.853 6.84301L440.182 1.51342Z" fill="#6B9CF0"/>
<path d="M441.117 6.75402L437.282 2.91927L433.335 6.8667L437.17 10.7014L441.117 6.75402ZM437.262 4.43414L439.605 6.77763L437.196 9.18649L434.853 6.84301L437.262 4.43414Z" fill="#6B9CF0"/>
<path d="M365.626 6.67759L358.949 0.00136344L352.084 6.8667L358.76 13.5429L365.626 6.67759ZM358.931 1.51342L364.113 6.69558L358.784 12.0252L353.602 6.84301L358.931 1.51342Z" fill="#6B9CF0"/>
<path d="M359.866 6.75402L356.031 2.91927L352.084 6.8667L355.919 10.7014L359.866 6.75402ZM356.011 4.43414L358.354 6.77763L355.945 9.18649L353.602 6.84301L356.011 4.43414Z" fill="#6B9CF0"/>
<path d="M419.797 6.6771L413.12 0.000875161L406.255 6.86621L412.931 13.5424L419.797 6.6771ZM413.102 1.51294L418.284 6.69509L412.955 12.0247L407.773 6.84252L413.102 1.51294Z" fill="#6B9CF0"/>
<path d="M414.037 6.75353L410.202 2.91878L406.255 6.86621L410.09 10.701L414.037 6.75353ZM410.182 4.43366L412.525 6.77714L410.116 9.186L407.773 6.84252L410.182 4.43366Z" fill="#6B9CF0"/>
<path d="M473.965 6.6771L467.289 0.000875161L460.424 6.86621L467.1 13.5424L473.965 6.6771ZM467.271 1.51294L472.453 6.69509L467.124 12.0247L461.942 6.84252L467.271 1.51294Z" fill="#6B9CF0"/>
<path d="M468.206 6.75353L464.371 2.91878L460.424 6.86621L464.259 10.701L468.206 6.75353ZM464.35 4.43366L466.694 6.77714L464.285 9.186L461.942 6.84252L464.35 4.43366Z" fill="#6B9CF0"/>
<path d="M352.091 6.67759L345.415 0.00136344L338.55 6.8667L345.226 13.5429L352.091 6.67759ZM345.397 1.51342L350.579 6.69558L345.25 12.0252L340.068 6.84301L345.397 1.51342Z" fill="#6B9CF0"/>
<path d="M346.332 6.75402L342.497 2.91927L338.55 6.8667L342.385 10.7014L346.332 6.75402ZM342.476 4.43414L344.82 6.77763L342.411 9.18649L340.068 6.84301L342.476 4.43414Z" fill="#6B9CF0"/>
<path d="M406.251 6.67759L399.574 0.00136344L392.709 6.8667L399.385 13.5429L406.251 6.67759ZM399.556 1.51342L404.738 6.69558L399.409 12.0252L394.227 6.84301L399.556 1.51342Z" fill="#6B9CF0"/>
<path d="M400.491 6.75402L396.656 2.91927L392.709 6.8667L396.544 10.7014L400.491 6.75402ZM396.636 4.43414L398.979 6.77763L396.57 9.18649L394.227 6.84301L396.636 4.43414Z" fill="#6B9CF0"/>
<path d="M460.422 6.6771L453.746 0.000875161L446.881 6.86621L453.557 13.5424L460.422 6.6771ZM453.728 1.51294L458.91 6.69509L453.581 12.0247L448.399 6.84252L453.728 1.51294Z" fill="#6B9CF0"/>
<path d="M454.663 6.75353L450.828 2.91878L446.881 6.86621L450.716 10.701L454.663 6.75353ZM450.807 4.43366L453.151 6.77714L450.742 9.186L448.399 6.84252L450.807 4.43366Z" fill="#6B9CF0"/>
<path d="M379.171 6.6771L372.495 0.000875161L365.63 6.86621L372.306 13.5424L379.171 6.6771ZM372.477 1.51294L377.659 6.69509L372.33 12.0247L367.148 6.84252L372.477 1.51294Z" fill="#6B9CF0"/>
<path d="M373.412 6.75353L369.577 2.91878L365.63 6.86621L369.465 10.701L373.412 6.75353ZM369.556 4.43366L371.9 6.77714L369.491 9.186L367.148 6.84252L369.556 4.43366Z" fill="#6B9CF0"/>
<path d="M433.339 6.6771L426.663 0.000875161L419.798 6.86621L426.474 13.5424L433.339 6.6771ZM426.645 1.51294L431.827 6.69509L426.498 12.0247L421.316 6.84252L426.645 1.51294Z" fill="#6B9CF0"/>
<path d="M427.58 6.75353L423.745 2.91878L419.798 6.86621L423.633 10.701L427.58 6.75353ZM423.724 4.43366L426.068 6.77714L423.659 9.186L421.316 6.84252L423.724 4.43366Z" fill="#6B9CF0"/>
<path d="M487.506 6.67759L480.83 0.00136344L473.965 6.8667L480.641 13.5429L487.506 6.67759ZM480.812 1.51342L485.994 6.69558L480.665 12.0252L475.483 6.84301L480.812 1.51342Z" fill="#6B9CF0"/>
<path d="M481.747 6.75402L477.912 2.91927L473.965 6.8667L477.8 10.7014L481.747 6.75402ZM477.891 4.43414L480.235 6.77763L477.826 9.18649L475.483 6.84301L477.891 4.43414Z" fill="#6B9CF0"/>
<path d="M501.049 6.6771L494.373 0.000875161L487.508 6.86621L494.184 13.5424L501.049 6.6771ZM494.355 1.51294L499.537 6.69509L494.208 12.0247L489.026 6.84252L494.355 1.51294Z" fill="#6B9CF0"/>
<path d="M495.29 6.75353L491.455 2.91878L487.508 6.86621L491.343 10.701L495.29 6.75353ZM491.434 4.43366L493.778 6.77714L491.369 9.186L489.026 6.84252L491.434 4.43366Z" fill="#6B9CF0"/>
<path d="M555.217 6.67661L548.541 0.000386879L541.676 6.86572L548.352 13.5419L555.217 6.67661ZM548.523 1.51245L553.705 6.69461L548.376 12.0242L543.193 6.84203L548.523 1.51245Z" fill="#6B9CF0"/>
<path d="M549.458 6.75304L545.623 2.9183L541.676 6.86572L545.511 10.7005L549.458 6.75304ZM545.602 4.43317L547.946 6.77665L545.537 9.18552L543.193 6.84203L545.602 4.43317Z" fill="#6B9CF0"/>
<path d="M609.381 6.67661L602.705 0.000386879L595.84 6.86572L602.516 13.5419L609.381 6.67661ZM602.687 1.51245L607.869 6.69461L602.54 12.0242L597.358 6.84203L602.687 1.51245Z" fill="#6B9CF0"/>
<path d="M603.622 6.75304L599.787 2.9183L595.84 6.86572L599.675 10.7005L603.622 6.75304ZM599.766 4.43317L602.11 6.77665L599.701 9.18552L597.358 6.84203L599.766 4.43317Z" fill="#6B9CF0"/>
<path d="M528.129 6.6771L521.453 0.000875161L514.588 6.86621L521.264 13.5424L528.129 6.6771ZM521.435 1.51294L526.617 6.69509L521.288 12.0247L516.106 6.84252L521.435 1.51294Z" fill="#6B9CF0"/>
<path d="M522.37 6.75353L518.535 2.91878L514.588 6.86621L518.423 10.701L522.37 6.75353ZM518.514 4.43366L520.858 6.77714L518.449 9.186L516.106 6.84252L518.514 4.43366Z" fill="#6B9CF0"/>
<path d="M582.299 6.67759L575.622 0.00136344L568.757 6.8667L575.433 13.5429L582.299 6.67759ZM575.604 1.51342L580.786 6.69558L575.457 12.0252L570.275 6.84301L575.604 1.51342Z" fill="#6B9CF0"/>
<path d="M576.539 6.75402L572.704 2.91927L568.757 6.8667L572.592 10.7014L576.539 6.75402ZM572.684 4.43414L575.027 6.77763L572.618 9.18649L570.275 6.84301L572.684 4.43414Z" fill="#6B9CF0"/>
<path d="M636.467 6.67661L629.791 0.000386879L622.926 6.86572L629.602 13.5419L636.467 6.67661ZM629.773 1.51245L634.955 6.69461L629.626 12.0242L624.443 6.84203L629.773 1.51245Z" fill="#6B9CF0"/>
<path d="M630.708 6.75304L626.873 2.9183L622.926 6.86572L626.761 10.7005L630.708 6.75304ZM626.852 4.43317L629.196 6.77665L626.787 9.18552L624.443 6.84203L626.852 4.43317Z" fill="#6B9CF0"/>
<path d="M514.593 6.67661L507.917 0.000386879L501.052 6.86572L507.728 13.5419L514.593 6.67661ZM507.899 1.51245L513.081 6.69461L507.752 12.0242L502.569 6.84203L507.899 1.51245Z" fill="#6B9CF0"/>
<path d="M508.834 6.75304L504.999 2.9183L501.052 6.86572L504.887 10.7005L508.834 6.75304ZM504.978 4.43317L507.322 6.77665L504.913 9.18552L502.569 6.84203L504.978 4.43317Z" fill="#6B9CF0"/>
<path d="M568.754 6.6771L562.078 0.000875161L555.213 6.86621L561.889 13.5424L568.754 6.6771ZM562.06 1.51294L567.242 6.69509L561.913 12.0247L556.731 6.84252L562.06 1.51294Z" fill="#6B9CF0"/>
<path d="M562.995 6.75353L559.16 2.91878L555.213 6.86621L559.048 10.701L562.995 6.75353ZM559.139 4.43366L561.483 6.77714L559.074 9.186L556.731 6.84252L559.139 4.43366Z" fill="#6B9CF0"/>
<path d="M622.923 6.67759L616.247 0.00136344L609.382 6.8667L616.058 13.5429L622.923 6.67759ZM616.229 1.51342L621.411 6.69558L616.082 12.0252L610.9 6.84301L616.229 1.51342Z" fill="#6B9CF0"/>
<path d="M617.164 6.75402L613.329 2.91927L609.382 6.8667L613.217 10.7014L617.164 6.75402ZM613.308 4.43414L615.652 6.77763L613.243 9.18649L610.9 6.84301L613.308 4.43414Z" fill="#6B9CF0"/>
<path d="M541.673 6.6771L534.997 0.000875161L528.132 6.86621L534.808 13.5424L541.673 6.6771ZM534.979 1.51294L540.161 6.69509L534.832 12.0247L529.65 6.84252L534.979 1.51294Z" fill="#6B9CF0"/>
<path d="M535.914 6.75353L532.079 2.91878L528.132 6.86621L531.967 10.701L535.914 6.75353ZM532.058 4.43366L534.402 6.77714L531.993 9.186L529.65 6.84252L532.058 4.43366Z" fill="#6B9CF0"/>
<path d="M595.841 6.67661L589.165 0.000386879L582.3 6.86572L588.976 13.5419L595.841 6.67661ZM589.147 1.51245L594.329 6.69461L589 12.0242L583.818 6.84203L589.147 1.51245Z" fill="#6B9CF0"/>
<path d="M590.082 6.75304L586.247 2.9183L582.3 6.86572L586.135 10.7005L590.082 6.75304ZM586.226 4.43317L588.57 6.77665L586.161 9.18552L583.818 6.84203L586.226 4.43317Z" fill="#6B9CF0"/>
<path d="M650.006 6.67661L643.33 0.000386879L636.465 6.86572L643.141 13.5419L650.006 6.67661ZM643.312 1.51245L648.494 6.69461L643.165 12.0242L637.983 6.84203L643.312 1.51245Z" fill="#6B9CF0"/>
<path d="M644.247 6.75304L640.412 2.9183L636.465 6.86572L640.3 10.7005L644.247 6.75304ZM640.391 4.43317L642.735 6.77665L640.326 9.18552L637.983 6.84203L640.391 4.43317Z" fill="#6B9CF0"/>
<path d="M663.541 6.67661L656.864 0.000386879L649.999 6.86572L656.675 13.5419L663.541 6.67661ZM656.846 1.51245L662.028 6.69461L656.699 12.0242L651.517 6.84203L656.846 1.51245Z" fill="#6B9CF0"/>
<path d="M657.781 6.75304L653.946 2.9183L649.999 6.86572L653.834 10.7005L657.781 6.75304ZM653.926 4.43317L656.269 6.77665L653.86 9.18552L651.517 6.84203L653.926 4.43317Z" fill="#6B9CF0"/>
<path d="M717.71 6.6771L711.033 0.000875161L704.168 6.86621L710.844 13.5424L717.71 6.6771ZM711.015 1.51294L716.197 6.69509L710.868 12.0247L705.686 6.84252L711.015 1.51294Z" fill="#6B9CF0"/>
<path d="M711.95 6.75353L708.115 2.91878L704.168 6.86621L708.003 10.701L711.95 6.75353ZM708.095 4.43366L710.438 6.77714L708.029 9.186L705.686 6.84252L708.095 4.43366Z" fill="#6B9CF0"/>
<path d="M771.872 6.67661L765.195 0.000386879L758.33 6.86572L765.006 13.5419L771.872 6.67661ZM765.177 1.51245L770.36 6.69461L765.03 12.0242L759.848 6.84203L765.177 1.51245Z" fill="#6B9CF0"/>
<path d="M766.112 6.75304L762.278 2.9183L758.33 6.86572L762.165 10.7005L766.112 6.75304ZM762.257 4.43317L764.6 6.77665L762.191 9.18552L759.848 6.84203L762.257 4.43317Z" fill="#6B9CF0"/>
<path d="M690.621 6.67661L683.944 0.000386879L677.079 6.86572L683.755 13.5419L690.621 6.67661ZM683.926 1.51245L689.109 6.69461L683.779 12.0242L678.597 6.84203L683.926 1.51245Z" fill="#6B9CF0"/>
<path d="M684.861 6.75304L681.027 2.9183L677.079 6.86572L680.914 10.7005L684.861 6.75304ZM681.006 4.43317L683.349 6.77665L680.94 9.18552L678.597 6.84203L681.006 4.43317Z" fill="#6B9CF0"/>
<path d="M744.791 6.67612L738.114 -0.000101402L731.249 6.86523L737.925 13.5415L744.791 6.67612ZM738.096 1.51196L743.278 6.69412L737.949 12.0237L732.767 6.84155L738.096 1.51196Z" fill="#6B9CF0"/>
<path d="M739.031 6.75255L735.196 2.91781L731.249 6.86523L735.084 10.7L739.031 6.75255ZM735.176 4.43268L737.519 6.77616L735.11 9.18503L732.767 6.84155L735.176 4.43268Z" fill="#6B9CF0"/>
<path d="M798.96 6.6771L792.283 0.000875161L785.418 6.86621L792.094 13.5424L798.96 6.6771ZM792.265 1.51294L797.447 6.69509L792.118 12.0247L786.936 6.84252L792.265 1.51294Z" fill="#6B9CF0"/>
<path d="M793.2 6.75353L789.365 2.91878L785.418 6.86621L789.253 10.701L793.2 6.75353ZM789.345 4.43366L791.688 6.77714L789.279 9.186L786.936 6.84252L789.345 4.43366Z" fill="#6B9CF0"/>
<path d="M677.086 6.6771L670.409 0.000875161L663.544 6.86621L670.22 13.5424L677.086 6.6771ZM670.391 1.51294L675.573 6.69509L670.244 12.0247L665.062 6.84252L670.391 1.51294Z" fill="#6B9CF0"/>
<path d="M671.326 6.75353L667.491 2.91878L663.544 6.86621L667.379 10.701L671.326 6.75353ZM667.471 4.43366L669.814 6.77714L667.405 9.186L665.062 6.84252L667.471 4.43366Z" fill="#6B9CF0"/>
<path d="M731.246 6.67661L724.569 0.000386879L717.704 6.86572L724.38 13.5419L731.246 6.67661ZM724.551 1.51245L729.734 6.69461L724.404 12.0242L719.222 6.84203L724.551 1.51245Z" fill="#6B9CF0"/>
<path d="M725.486 6.75304L721.652 2.9183L717.704 6.86572L721.539 10.7005L725.486 6.75304ZM721.631 4.43317L723.974 6.77665L721.565 9.18552L719.222 6.84203L721.631 4.43317Z" fill="#6B9CF0"/>
<path d="M785.416 6.67612L778.739 -0.000101402L771.874 6.86523L778.55 13.5415L785.416 6.67612ZM778.721 1.51196L783.903 6.69412L778.574 12.0237L773.392 6.84155L778.721 1.51196Z" fill="#6B9CF0"/>
<path d="M779.656 6.75255L775.821 2.91781L771.874 6.86523L775.709 10.7L779.656 6.75255ZM775.801 4.43268L778.144 6.77616L775.735 9.18503L773.392 6.84155L775.801 4.43268Z" fill="#6B9CF0"/>
<path d="M704.165 6.67661L697.488 0.000386879L690.623 6.86572L697.299 13.5419L704.165 6.67661ZM697.47 1.51245L702.653 6.69461L697.323 12.0242L692.141 6.84203L697.47 1.51245Z" fill="#6B9CF0"/>
<path d="M698.405 6.75304L694.57 2.9183L690.623 6.86572L694.458 10.7005L698.405 6.75304ZM694.55 4.43317L696.893 6.77665L694.484 9.18552L692.141 6.84203L694.55 4.43317Z" fill="#6B9CF0"/>
<path d="M758.334 6.6771L751.657 0.000875161L744.792 6.86621L751.468 13.5424L758.334 6.6771ZM751.639 1.51294L756.821 6.69509L751.492 12.0247L746.31 6.84252L751.639 1.51294Z" fill="#6B9CF0"/>
<path d="M752.574 6.75353L748.739 2.91878L744.792 6.86621L748.627 10.701L752.574 6.75353ZM748.719 4.43366L751.062 6.77714L748.653 9.186L746.31 6.84252L748.719 4.43366Z" fill="#6B9CF0"/>
<path d="M812.499 6.67661L805.822 0.000386879L798.957 6.86572L805.633 13.5419L812.499 6.67661ZM805.804 1.51245L810.986 6.69461L805.657 12.0242L800.475 6.84203L805.804 1.51245Z" fill="#6B9CF0"/>
<path d="M806.739 6.75304L802.904 2.9183L798.957 6.86572L802.792 10.7005L806.739 6.75304ZM802.884 4.43317L805.227 6.77665L802.818 9.18552L800.475 6.84203L802.884 4.43317Z" fill="#6B9CF0"/>
<path d="M826.042 6.67612L819.365 -0.000101402L812.5 6.86523L819.176 13.5415L826.042 6.67612ZM819.347 1.51196L824.529 6.69412L819.2 12.0237L814.018 6.84155L819.347 1.51196Z" fill="#6B9CF0"/>
<path d="M820.282 6.75255L816.447 2.91781L812.5 6.86523L816.335 10.7L820.282 6.75255ZM816.427 4.43268L818.77 6.77616L816.361 9.18503L814.018 6.84155L816.427 4.43268Z" fill="#6B9CF0"/>
<path d="M880.212 6.6771L873.536 0.000875161L866.671 6.86621L873.347 13.5424L880.212 6.6771ZM873.518 1.51294L878.7 6.69509L873.371 12.0247L868.189 6.84252L873.518 1.51294Z" fill="#6B9CF0"/>
<path d="M874.453 6.75353L870.618 2.91878L866.671 6.86621L870.506 10.701L874.453 6.75353ZM870.597 4.43366L872.941 6.77714L870.532 9.186L868.189 6.84252L870.597 4.43366Z" fill="#6B9CF0"/>
<path d="M934.374 6.67612L927.697 -0.000101402L920.832 6.86523L927.508 13.5415L934.374 6.67612ZM927.679 1.51196L932.861 6.69412L927.532 12.0237L922.35 6.84155L927.679 1.51196Z" fill="#6B9CF0"/>
<path d="M928.614 6.75255L924.779 2.91781L920.832 6.86523L924.667 10.7L928.614 6.75255ZM924.759 4.43268L927.102 6.77616L924.693 9.18503L922.35 6.84155L924.759 4.43268Z" fill="#6B9CF0"/>
<path d="M853.123 6.67612L846.446 -0.000101402L839.581 6.86523L846.257 13.5415L853.123 6.67612ZM846.428 1.51196L851.611 6.69412L846.281 12.0237L841.099 6.84155L846.428 1.51196Z" fill="#6B9CF0"/>
<path d="M847.363 6.75255L843.528 2.91781L839.581 6.86523L843.416 10.7L847.363 6.75255ZM843.508 4.43268L845.851 6.77616L843.442 9.18503L841.099 6.84155L843.508 4.43268Z" fill="#6B9CF0"/>
<path d="M907.293 6.67612L900.616 -0.000101402L893.751 6.86523L900.427 13.5415L907.293 6.67612ZM900.598 1.51196L905.78 6.69412L900.451 12.0237L895.269 6.84155L900.598 1.51196Z" fill="#6B9CF0"/>
<path d="M901.533 6.75255L897.698 2.91781L893.751 6.86523L897.586 10.7L901.533 6.75255ZM897.678 4.43268L900.021 6.77616L897.612 9.18503L895.269 6.84155L897.678 4.43268Z" fill="#6B9CF0"/>
<path d="M961.461 6.6771L954.785 0.000875161L947.92 6.86621L954.596 13.5424L961.461 6.6771ZM954.767 1.51294L959.949 6.69509L954.62 12.0247L949.438 6.84252L954.767 1.51294Z" fill="#6B9CF0"/>
<path d="M955.702 6.75353L951.867 2.91878L947.92 6.86621L951.755 10.701L955.702 6.75353ZM951.847 4.43366L954.19 6.77714L951.781 9.186L949.438 6.84252L951.847 4.43366Z" fill="#6B9CF0"/>
<path d="M839.586 6.6771L832.91 0.000875161L826.045 6.86621L832.721 13.5424L839.586 6.6771ZM832.892 1.51294L838.074 6.69509L832.745 12.0247L827.563 6.84252L832.892 1.51294Z" fill="#6B9CF0"/>
<path d="M833.827 6.75353L829.992 2.91878L826.045 6.86621L829.88 10.701L833.827 6.75353ZM829.972 4.43366L832.315 6.77714L829.906 9.186L827.563 6.84252L829.972 4.43366Z" fill="#6B9CF0"/>
<path d="M893.747 6.67612L887.07 -0.000101402L880.205 6.86523L886.881 13.5415L893.747 6.67612ZM887.052 1.51196L892.235 6.69412L886.905 12.0237L881.723 6.84155L887.052 1.51196Z" fill="#6B9CF0"/>
<path d="M887.987 6.75255L884.153 2.91781L880.205 6.86523L884.04 10.7L887.987 6.75255ZM884.132 4.43268L886.475 6.77616L884.066 9.18503L881.723 6.84155L884.132 4.43268Z" fill="#6B9CF0"/>
<path d="M947.917 6.67612L941.24 -0.000101402L934.375 6.86523L941.051 13.5415L947.917 6.67612ZM941.222 1.51196L946.404 6.69412L941.075 12.0237L935.893 6.84155L941.222 1.51196Z" fill="#6B9CF0"/>
<path d="M942.157 6.75255L938.322 2.91781L934.375 6.86523L938.21 10.7L942.157 6.75255ZM938.302 4.43268L940.645 6.77616L938.236 9.18503L935.893 6.84155L938.302 4.43268Z" fill="#6B9CF0"/>
<path d="M866.667 6.67612L859.99 -0.000101402L853.125 6.86523L859.801 13.5415L866.667 6.67612ZM859.972 1.51196L865.154 6.69412L859.825 12.0237L854.643 6.84155L859.972 1.51196Z" fill="#6B9CF0"/>
<path d="M860.907 6.75255L857.072 2.91781L853.125 6.86523L856.96 10.7L860.907 6.75255ZM857.052 4.43268L859.395 6.77616L856.986 9.18503L854.643 6.84155L857.052 4.43268Z" fill="#6B9CF0"/>
<path d="M920.836 6.6771L914.16 0.000875161L907.295 6.86621L913.971 13.5424L920.836 6.6771ZM914.142 1.51294L919.324 6.69509L913.995 12.0247L908.813 6.84252L914.142 1.51294Z" fill="#6B9CF0"/>
<path d="M915.077 6.75353L911.242 2.91878L907.295 6.86621L911.13 10.701L915.077 6.75353ZM911.222 4.43366L913.565 6.77714L911.156 9.186L908.813 6.84252L911.222 4.43366Z" fill="#6B9CF0"/>
<path d="M975.002 6.67661L968.325 0.000386879L961.46 6.86572L968.136 13.5419L975.002 6.67661ZM968.307 1.51245L973.489 6.69461L968.16 12.0242L962.978 6.84203L968.307 1.51245Z" fill="#6B9CF0"/>
<path d="M969.242 6.75304L965.407 2.9183L961.46 6.86572L965.295 10.7005L969.242 6.75304ZM965.387 4.43317L967.73 6.77665L965.321 9.18552L962.978 6.84203L965.387 4.43317Z" fill="#6B9CF0"/>
<path d="M988.54 6.67612L981.863 -0.000101402L974.998 6.86523L981.674 13.5415L988.54 6.67612ZM981.845 1.51196L987.028 6.69412L981.698 12.0237L976.516 6.84155L981.845 1.51196Z" fill="#6B9CF0"/>
<path d="M982.78 6.75255L978.945 2.91781L974.998 6.86523L978.833 10.7L982.78 6.75255ZM978.925 4.43268L981.268 6.77616L978.859 9.18503L976.516 6.84155L978.925 4.43268Z" fill="#6B9CF0"/>
<path d="M1042.71 6.67661L1036.03 0.000386879L1029.17 6.86572L1035.84 13.5419L1042.71 6.67661ZM1036.02 1.51245L1041.2 6.69461L1035.87 12.0242L1030.69 6.84203L1036.02 1.51245Z" fill="#6B9CF0"/>
<path d="M1036.95 6.75304L1033.12 2.9183L1029.17 6.86572L1033 10.7005L1036.95 6.75304ZM1033.09 4.43317L1035.44 6.77665L1033.03 9.18552L1030.69 6.84203L1033.09 4.43317Z" fill="#6B9CF0"/>
<path d="M1096.87 6.67661L1090.19 0.000386879L1083.33 6.86572L1090.01 13.5419L1096.87 6.67661ZM1090.18 1.51245L1095.36 6.69461L1090.03 12.0242L1084.85 6.84203L1090.18 1.51245Z" fill="#6B9CF0"/>
<path d="M1091.11 6.75304L1087.28 2.9183L1083.33 6.86572L1087.16 10.7005L1091.11 6.75304ZM1087.26 4.43317L1089.6 6.77665L1087.19 9.18552L1084.85 6.84203L1087.26 4.43317Z" fill="#6B9CF0"/>
<path d="M1015.62 6.67661L1008.94 0.000386879L1002.08 6.86572L1008.75 13.5419L1015.62 6.67661ZM1008.93 1.51245L1014.11 6.69461L1008.78 12.0242L1003.6 6.84203L1008.93 1.51245Z" fill="#6B9CF0"/>
<path d="M1009.86 6.75304L1006.03 2.9183L1002.08 6.86572L1005.91 10.7005L1009.86 6.75304ZM1006 4.43317L1008.35 6.77665L1005.94 9.18552L1003.6 6.84203L1006 4.43317Z" fill="#6B9CF0"/>
<path d="M1069.79 6.67612L1063.11 -0.000101402L1056.25 6.86523L1062.93 13.5415L1069.79 6.67612ZM1063.1 1.51196L1068.28 6.69412L1062.95 12.0237L1057.77 6.84155L1063.1 1.51196Z" fill="#6B9CF0"/>
<path d="M1064.03 6.75255L1060.2 2.91781L1056.25 6.86523L1060.08 10.7L1064.03 6.75255ZM1060.18 4.43268L1062.52 6.77616L1060.11 9.18503L1057.77 6.84155L1060.18 4.43268Z" fill="#6B9CF0"/>
<path d="M1123.96 6.67661L1117.28 0.000386879L1110.42 6.86572L1117.09 13.5419L1123.96 6.67661ZM1117.27 1.51245L1122.45 6.69461L1117.12 12.0242L1111.94 6.84203L1117.27 1.51245Z" fill="#6B9CF0"/>
<path d="M1118.2 6.75304L1114.37 2.9183L1110.42 6.86572L1114.25 10.7005L1118.2 6.75304ZM1114.34 4.43317L1116.69 6.77665L1114.28 9.18552L1111.94 6.84203L1114.34 4.43317Z" fill="#6B9CF0"/>
<path d="M1002.09 6.6771L995.409 0.000875161L988.544 6.86621L995.22 13.5424L1002.09 6.6771ZM995.391 1.51294L1000.57 6.69509L995.244 12.0247L990.062 6.84252L995.391 1.51294Z" fill="#6B9CF0"/>
<path d="M996.326 6.75353L992.491 2.91878L988.544 6.86621L992.379 10.701L996.326 6.75353ZM992.471 4.43366L994.814 6.77714L992.405 9.186L990.062 6.84252L992.471 4.43366Z" fill="#6B9CF0"/>
<path d="M1056.25 6.67661L1049.57 0.000386879L1042.7 6.86572L1049.38 13.5419L1056.25 6.67661ZM1049.55 1.51245L1054.73 6.69461L1049.4 12.0242L1044.22 6.84203L1049.55 1.51245Z" fill="#6B9CF0"/>
<path d="M1050.49 6.75304L1046.65 2.9183L1042.7 6.86572L1046.54 10.7005L1050.49 6.75304ZM1046.63 4.43317L1048.97 6.77665L1046.57 9.18552L1044.22 6.84203L1046.63 4.43317Z" fill="#6B9CF0"/>
<path d="M1110.41 6.67612L1103.74 -0.000101402L1096.87 6.86523L1103.55 13.5415L1110.41 6.67612ZM1103.72 1.51196L1108.9 6.69412L1103.57 12.0237L1098.39 6.84155L1103.72 1.51196Z" fill="#6B9CF0"/>
<path d="M1104.66 6.75255L1100.82 2.91781L1096.87 6.86523L1100.71 10.7L1104.66 6.75255ZM1100.8 4.43268L1103.14 6.77616L1100.73 9.18503L1098.39 6.84155L1100.8 4.43268Z" fill="#6B9CF0"/>
<path d="M1029.16 6.67612L1022.49 -0.000101402L1015.62 6.86523L1022.3 13.5415L1029.16 6.67612ZM1022.47 1.51196L1027.65 6.69412L1022.32 12.0237L1017.14 6.84155L1022.47 1.51196Z" fill="#6B9CF0"/>
<path d="M1023.41 6.75255L1019.57 2.91781L1015.62 6.86523L1019.46 10.7L1023.41 6.75255ZM1019.55 4.43268L1021.89 6.77616L1019.48 9.18503L1017.14 6.84155L1019.55 4.43268Z" fill="#6B9CF0"/>
<path d="M1083.33 6.67661L1076.66 0.000386879L1069.79 6.86572L1076.47 13.5419L1083.33 6.67661ZM1076.64 1.51245L1081.82 6.69461L1076.49 12.0242L1071.31 6.84203L1076.64 1.51245Z" fill="#6B9CF0"/>
<path d="M1077.58 6.75304L1073.74 2.9183L1069.79 6.86572L1073.63 10.7005L1077.58 6.75304ZM1073.72 4.43317L1076.06 6.77665L1073.65 9.18552L1071.31 6.84203L1073.72 4.43317Z" fill="#6B9CF0"/>
<path d="M1137.5 6.67661L1130.82 0.000386879L1123.96 6.86572L1130.63 13.5419L1137.5 6.67661ZM1130.8 1.51245L1135.98 6.69461L1130.65 12.0242L1125.47 6.84203L1130.8 1.51245Z" fill="#6B9CF0"/>
<path d="M1131.74 6.75304L1127.9 2.9183L1123.96 6.86572L1127.79 10.7005L1131.74 6.75304ZM1127.88 4.43317L1130.23 6.77665L1127.82 9.18552L1125.47 6.84203L1127.88 4.43317Z" fill="#6B9CF0"/>
<path d="M1151.04 6.67612L1144.37 -0.000101402L1137.5 6.86523L1144.18 13.5415L1151.04 6.67612ZM1144.35 1.51196L1149.53 6.69412L1144.2 12.0237L1139.02 6.84155L1144.35 1.51196Z" fill="#6B9CF0"/>
<path d="M1145.28 6.75255L1141.45 2.91781L1137.5 6.86523L1141.34 10.7L1145.28 6.75255ZM1141.43 4.43268L1143.77 6.77616L1141.36 9.18503L1139.02 6.84155L1141.43 4.43268Z" fill="#6B9CF0"/>
<path d="M1205.21 6.67661L1198.54 0.000386879L1191.67 6.86572L1198.35 13.5419L1205.21 6.67661ZM1198.52 1.51245L1203.7 6.69461L1198.37 12.0242L1193.19 6.84203L1198.52 1.51245Z" fill="#6B9CF0"/>
<path d="M1199.45 6.75304L1195.62 2.9183L1191.67 6.86572L1195.51 10.7005L1199.45 6.75304ZM1195.6 4.43317L1197.94 6.77665L1195.53 9.18552L1193.19 6.84203L1195.6 4.43317Z" fill="#6B9CF0"/>
<path d="M1259.38 6.67661L1252.7 0.000386879L1245.83 6.86572L1252.51 13.5419L1259.38 6.67661ZM1252.68 1.51245L1257.86 6.69461L1252.53 12.0242L1247.35 6.84203L1252.68 1.51245Z" fill="#6B9CF0"/>
<path d="M1253.62 6.75304L1249.78 2.9183L1245.83 6.86572L1249.67 10.7005L1253.62 6.75304ZM1249.76 4.43317L1252.1 6.77665L1249.7 9.18552L1247.35 6.84203L1249.76 4.43317Z" fill="#6B9CF0"/>
<path d="M1178.12 6.67661L1171.45 0.000386879L1164.58 6.86572L1171.26 13.5419L1178.12 6.67661ZM1171.43 1.51245L1176.61 6.69461L1171.28 12.0242L1166.1 6.84203L1171.43 1.51245Z" fill="#6B9CF0"/>
<path d="M1172.36 6.75304L1168.53 2.9183L1164.58 6.86572L1168.42 10.7005L1172.36 6.75304ZM1168.51 4.43317L1170.85 6.77665L1168.44 9.18552L1166.1 6.84203L1168.51 4.43317Z" fill="#6B9CF0"/>
<path d="M1232.29 6.67661L1225.62 0.000386879L1218.75 6.86572L1225.43 13.5419L1232.29 6.67661ZM1225.6 1.51245L1230.78 6.69461L1225.45 12.0242L1220.27 6.84203L1225.6 1.51245Z" fill="#6B9CF0"/>
<path d="M1226.53 6.75304L1222.7 2.9183L1218.75 6.86572L1222.59 10.7005L1226.53 6.75304ZM1222.68 4.43317L1225.02 6.77665L1222.61 9.18552L1220.27 6.84203L1222.68 4.43317Z" fill="#6B9CF0"/>
<path d="M1286.46 6.67661L1279.79 0.000386879L1272.92 6.86572L1279.6 13.5419L1286.46 6.67661ZM1279.77 1.51245L1284.95 6.69461L1279.62 12.0242L1274.44 6.84203L1279.77 1.51245Z" fill="#6B9CF0"/>
<path d="M1280.7 6.75304L1276.87 2.9183L1272.92 6.86572L1276.76 10.7005L1280.7 6.75304ZM1276.85 4.43317L1279.19 6.77665L1276.78 9.18552L1274.44 6.84203L1276.85 4.43317Z" fill="#6B9CF0"/>
<path d="M1164.59 6.67661L1157.91 0.000386879L1151.05 6.86572L1157.72 13.5419L1164.59 6.67661ZM1157.89 1.51245L1163.08 6.69461L1157.75 12.0242L1152.56 6.84203L1157.89 1.51245Z" fill="#6B9CF0"/>
<path d="M1158.83 6.75304L1154.99 2.9183L1151.05 6.86572L1154.88 10.7005L1158.83 6.75304ZM1154.97 4.43317L1157.32 6.77665L1154.91 9.18552L1152.56 6.84203L1154.97 4.43317Z" fill="#6B9CF0"/>
<path d="M1218.75 6.6771L1212.07 0.000875161L1205.21 6.86621L1211.88 13.5424L1218.75 6.6771ZM1212.06 1.51294L1217.24 6.69509L1211.91 12.0247L1206.73 6.84252L1212.06 1.51294Z" fill="#6B9CF0"/>
<path d="M1212.99 6.75353L1209.16 2.91878L1205.21 6.86621L1209.04 10.701L1212.99 6.75353ZM1209.13 4.43366L1211.48 6.77714L1209.07 9.186L1206.73 6.84252L1209.13 4.43366Z" fill="#6B9CF0"/>
<path d="M1272.92 6.67661L1266.24 0.000386879L1259.38 6.86572L1266.05 13.5419L1272.92 6.67661ZM1266.22 1.51245L1271.41 6.69461L1266.08 12.0242L1260.89 6.84203L1266.22 1.51245Z" fill="#6B9CF0"/>
<path d="M1267.16 6.75304L1263.32 2.9183L1259.38 6.86572L1263.21 10.7005L1267.16 6.75304ZM1263.3 4.43317L1265.65 6.77665L1263.24 9.18552L1260.89 6.84203L1263.3 4.43317Z" fill="#6B9CF0"/>
<path d="M1191.67 6.67661L1184.99 0.000386879L1178.13 6.86572L1184.8 13.5419L1191.67 6.67661ZM1184.97 1.51245L1190.16 6.69461L1184.83 12.0242L1179.64 6.84203L1184.97 1.51245Z" fill="#6B9CF0"/>
<path d="M1185.91 6.75304L1182.07 2.9183L1178.13 6.86572L1181.96 10.7005L1185.91 6.75304ZM1182.05 4.43317L1184.4 6.77665L1181.99 9.18552L1179.64 6.84203L1182.05 4.43317Z" fill="#6B9CF0"/>
<path d="M1245.84 6.67661L1239.16 0.000386879L1232.3 6.86572L1238.97 13.5419L1245.84 6.67661ZM1239.14 1.51245L1244.33 6.69461L1239 12.0242L1233.81 6.84203L1239.14 1.51245Z" fill="#6B9CF0"/>
<path d="M1240.08 6.75304L1236.24 2.9183L1232.3 6.86572L1236.13 10.7005L1240.08 6.75304ZM1236.22 4.43317L1238.57 6.77665L1236.16 9.18552L1233.81 6.84203L1236.22 4.43317Z" fill="#6B9CF0"/>
<path d="M1300 6.67661L1293.32 0.000386879L1286.46 6.86572L1293.14 13.5419L1300 6.67661ZM1293.31 1.51245L1298.49 6.69461L1293.16 12.0242L1287.98 6.84203L1293.31 1.51245Z" fill="#6B9CF0"/>
<path d="M1294.24 6.75304L1290.41 2.9183L1286.46 6.86572L1290.29 10.7005L1294.24 6.75304ZM1290.39 4.43317L1292.73 6.77665L1290.32 9.18552L1287.98 6.84203L1290.39 4.43317Z" fill="#6B9CF0"/>
</svg>
