<svg width="420" height="18" viewBox="0 0 420 18" fill="none" xmlns="http://www.w3.org/2000/svg">
<path d="M18.2608 9.12564L9.25789 18L0 8.87427L9.00287 -4.45445e-05L18.2608 9.12564ZM9.23357 15.9901L16.2217 9.10172L9.03477 2.01741L2.04664 8.90576L9.23357 15.9901Z" fill="#FFD801"/>
<path d="M10.4942 9.02405L5.32309 14.1213L0 8.87427L5.17114 3.77697L10.4942 9.02405ZM5.29499 12.1077L8.45517 8.99267L5.20682 5.7907L2.04664 8.90576L5.29499 12.1077Z" fill="#FFD801"/>
<path d="M91.3043 9.12564L82.3015 18L73.0436 8.87427L82.0464 -4.45445e-05L91.3043 9.12564ZM82.2772 15.9901L89.2653 9.10172L82.0783 2.01741L75.0902 8.90576L82.2772 15.9901Z" fill="#FFD801"/>
<path d="M83.5378 9.02405L78.3667 14.1213L73.0436 8.87427L78.2147 3.77697L83.5378 9.02405ZM78.3386 12.1077L81.4987 8.99267L78.2504 5.7907L75.0902 8.90576L78.3386 12.1077Z" fill="#FFD801"/>
<path d="M164.348 9.12564L155.345 18L146.087 8.87427L155.09 -4.45445e-05L164.348 9.12564ZM155.32 15.9901L162.309 9.10172L155.122 2.01741L148.134 8.90576L155.32 15.9901Z" fill="#FFD801"/>
<path d="M156.581 9.02405L151.41 14.1213L146.087 8.87427L151.258 3.77697L156.581 9.02405ZM151.382 12.1077L154.542 8.99267L151.294 5.7907L148.134 8.90576L151.382 12.1077Z" fill="#FFD801"/>
<path d="M54.7825 9.12564L45.7796 18L36.5217 8.87427L45.5246 -4.45445e-05L54.7825 9.12564ZM45.7553 15.9901L52.7434 9.10172L45.5565 2.01741L38.5684 8.90576L45.7553 15.9901Z" fill="#FFD801"/>
<path d="M47.016 9.02405L41.8448 14.1213L36.5217 8.87427L41.6929 3.77697L47.016 9.02405ZM41.8167 12.1077L44.9769 8.99267L41.7285 5.7907L38.5684 8.90576L41.8167 12.1077Z" fill="#FFD801"/>
<path d="M127.826 9.12564L118.823 18L109.565 8.87427L118.568 -4.45445e-05L127.826 9.12564ZM118.799 15.9901L125.787 9.10172L118.6 2.01741L111.612 8.90576L118.799 15.9901Z" fill="#FFD801"/>
<path d="M120.06 9.02405L114.888 14.1213L109.565 8.87427L114.736 3.77697L120.06 9.02405ZM114.86 12.1077L118.02 8.99267L114.772 5.7907L111.612 8.90576L114.86 12.1077Z" fill="#FFD801"/>
<path d="M200.87 9.12564L191.867 18L182.609 8.87427L191.612 -4.45445e-05L200.87 9.12564ZM191.842 15.9901L198.83 9.10172L191.644 2.01741L184.655 8.90576L191.842 15.9901Z" fill="#FFD801"/>
<path d="M193.103 9.02405L187.932 14.1213L182.609 8.87427L187.78 3.77697L193.103 9.02405ZM187.904 12.1077L191.064 8.99267L187.816 5.7907L184.655 8.90576L187.904 12.1077Z" fill="#FFD801"/>
<path d="M36.5216 9.12564L27.5188 18L18.2609 8.87427L27.2637 -4.45445e-05L36.5216 9.12564ZM27.4944 15.9901L34.4826 9.10172L27.2956 2.01741L20.3075 8.90576L27.4944 15.9901Z" fill="#FFD801"/>
<path d="M28.7551 9.02405L23.584 14.1213L18.2609 8.87427L23.432 3.77697L28.7551 9.02405ZM23.5559 12.1077L26.716 8.99267L23.4677 5.7907L20.3075 8.90576L23.5559 12.1077Z" fill="#FFD801"/>
<path d="M109.565 9.12564L100.562 18L91.3044 8.87427L100.307 -4.45445e-05L109.565 9.12564ZM100.538 15.9901L107.526 9.10172L100.339 2.01741L93.3511 8.90576L100.538 15.9901Z" fill="#FFD801"/>
<path d="M101.799 9.02405L96.6275 14.1213L91.3044 8.87427L96.4756 3.77697L101.799 9.02405ZM96.5994 12.1077L99.7596 8.99267L96.5113 5.7907L93.3511 8.90576L96.5994 12.1077Z" fill="#FFD801"/>
<path d="M182.609 9.12564L173.606 18L164.348 8.87427L173.351 -4.45445e-05L182.609 9.12564ZM173.581 15.9901L180.57 9.10172L173.383 2.01741L166.395 8.90576L173.581 15.9901Z" fill="#FFD801"/>
<path d="M174.842 9.02405L169.671 14.1213L164.348 8.87427L169.519 3.77697L174.842 9.02405ZM169.643 12.1077L172.803 8.99267L169.555 5.7907L166.395 8.90576L169.643 12.1077Z" fill="#FFD801"/>
<path d="M73.0435 9.12564L64.0406 18L54.7827 8.87427L63.7856 -4.45445e-05L73.0435 9.12564ZM64.0163 15.9901L71.0044 9.10172L63.8175 2.01741L56.8294 8.90576L64.0163 15.9901Z" fill="#FFD801"/>
<path d="M65.2769 9.02405L60.1058 14.1213L54.7827 8.87427L59.9539 3.77697L65.2769 9.02405ZM60.0777 12.1077L63.2379 8.99267L59.9895 5.7907L56.8294 8.90576L60.0777 12.1077Z" fill="#FFD801"/>
<path d="M146.087 9.12564L137.084 18L127.826 8.87427L136.829 -4.45445e-05L146.087 9.12564ZM137.06 15.9901L144.048 9.10172L136.861 2.01741L129.873 8.90576L137.06 15.9901Z" fill="#FFD801"/>
<path d="M138.32 9.02405L133.149 14.1213L127.826 8.87427L132.997 3.77697L138.32 9.02405ZM133.121 12.1077L136.281 8.99267L133.033 5.7907L129.873 8.90576L133.121 12.1077Z" fill="#FFD801"/>
<path d="M219.13 9.12564L210.128 18L200.87 8.87427L209.872 -4.45445e-05L219.13 9.12564ZM210.103 15.9901L217.091 9.10172L209.904 2.01741L202.916 8.90576L210.103 15.9901Z" fill="#FFD801"/>
<path d="M211.364 9.02405L206.193 14.1213L200.87 8.87427L206.041 3.77697L211.364 9.02405ZM206.165 12.1077L209.325 8.99267L206.076 5.7907L202.916 8.90576L206.165 12.1077Z" fill="#FFD801"/>
<path d="M237.391 9.12564L228.388 18L219.13 8.87427L228.133 -4.45445e-05L237.391 9.12564ZM228.364 15.9901L235.352 9.10172L228.165 2.01741L221.177 8.90576L228.364 15.9901Z" fill="#FFD801"/>
<path d="M229.625 9.02405L224.454 14.1213L219.13 8.87427L224.302 3.77697L229.625 9.02405ZM224.425 12.1077L227.586 8.99267L224.337 5.7907L221.177 8.90576L224.425 12.1077Z" fill="#FFD801"/>
<path d="M310.435 9.12564L301.432 18L292.174 8.87427L301.177 -4.45445e-05L310.435 9.12564ZM301.408 15.9901L308.396 9.10172L301.209 2.01741L294.221 8.90576L301.408 15.9901Z" fill="#FFD801"/>
<path d="M302.668 9.02405L297.497 14.1213L292.174 8.87427L297.345 3.77697L302.668 9.02405ZM297.469 12.1077L300.629 8.99267L297.381 5.7907L294.221 8.90576L297.469 12.1077Z" fill="#FFD801"/>
<path d="M383.478 9.12564L374.475 18L365.218 8.87427L374.22 -4.45445e-05L383.478 9.12564ZM374.451 15.9901L381.439 9.10172L374.252 2.01741L367.264 8.90576L374.451 15.9901Z" fill="#FFD801"/>
<path d="M375.712 9.02405L370.541 14.1213L365.218 8.87427L370.389 3.77697L375.712 9.02405ZM370.513 12.1077L373.673 8.99267L370.424 5.7907L367.264 8.90576L370.513 12.1077Z" fill="#FFD801"/>
<path d="M273.913 9.12564L264.91 18L255.652 8.87427L264.655 -4.45445e-05L273.913 9.12564ZM264.886 15.9901L271.874 9.10172L264.687 2.01741L257.699 8.90576L264.886 15.9901Z" fill="#FFD801"/>
<path d="M266.146 9.02405L260.975 14.1213L255.652 8.87427L260.823 3.77697L266.146 9.02405ZM260.947 12.1077L264.107 8.99267L260.859 5.7907L257.699 8.90576L260.947 12.1077Z" fill="#FFD801"/>
<path d="M346.956 9.12564L337.954 18L328.696 8.87427L337.699 -4.45445e-05L346.956 9.12564ZM337.929 15.9901L344.917 9.10172L337.73 2.01741L330.742 8.90576L337.929 15.9901Z" fill="#FFD801"/>
<path d="M339.19 9.02405L334.019 14.1213L328.696 8.87427L333.867 3.77697L339.19 9.02405ZM333.991 12.1077L337.151 8.99267L333.902 5.7907L330.742 8.90576L333.991 12.1077Z" fill="#FFD801"/>
<path d="M420 9.12564L410.997 18L401.739 8.87427L410.742 -4.45445e-05L420 9.12564ZM410.973 15.9901L417.961 9.10172L410.774 2.01741L403.786 8.90576L410.973 15.9901Z" fill="#FFD801"/>
<path d="M412.233 9.02405L407.062 14.1213L401.739 8.87427L406.91 3.77697L412.233 9.02405ZM407.034 12.1077L410.194 8.99267L406.946 5.7907L403.786 8.90576L407.034 12.1077Z" fill="#FFD801"/>
<path d="M255.652 9.12564L246.649 18L237.391 8.87427L246.394 -4.45445e-05L255.652 9.12564ZM246.625 15.9901L253.613 9.10172L246.426 2.01741L239.438 8.90576L246.625 15.9901Z" fill="#FFD801"/>
<path d="M247.886 9.02405L242.714 14.1213L237.391 8.87427L242.562 3.77697L247.886 9.02405ZM242.686 12.1077L245.847 8.99267L242.598 5.7907L239.438 8.90576L242.686 12.1077Z" fill="#FFD801"/>
<path d="M328.696 9.12564L319.693 18L310.435 8.87427L319.438 -4.45445e-05L328.696 9.12564ZM319.669 15.9901L326.657 9.10172L319.47 2.01741L312.482 8.90576L319.669 15.9901Z" fill="#FFD801"/>
<path d="M320.929 9.02405L315.758 14.1213L310.435 8.87427L315.606 3.77697L320.929 9.02405ZM315.73 12.1077L318.89 8.99267L315.642 5.7907L312.482 8.90576L315.73 12.1077Z" fill="#FFD801"/>
<path d="M401.739 9.12564L392.736 18L383.478 8.87427L392.481 -4.45445e-05L401.739 9.12564ZM392.712 15.9901L399.7 9.10172L392.513 2.01741L385.525 8.90576L392.712 15.9901Z" fill="#FFD801"/>
<path d="M393.973 9.02405L388.801 14.1213L383.478 8.87427L388.65 3.77697L393.973 9.02405ZM388.773 12.1077L391.934 8.99267L388.685 5.7907L385.525 8.90576L388.773 12.1077Z" fill="#FFD801"/>
<path d="M292.174 9.12564L283.171 18L273.913 8.87427L282.916 -4.45445e-05L292.174 9.12564ZM283.147 15.9901L290.135 9.10172L282.948 2.01741L275.96 8.90576L283.147 15.9901Z" fill="#FFD801"/>
<path d="M284.407 9.02405L279.236 14.1213L273.913 8.87427L279.084 3.77697L284.407 9.02405ZM279.208 12.1077L282.368 8.99267L279.12 5.7907L275.96 8.90576L279.208 12.1077Z" fill="#FFD801"/>
<path d="M365.217 9.12564L356.214 18L346.957 8.87427L355.959 -4.45445e-05L365.217 9.12564ZM356.19 15.9901L363.178 9.10172L355.991 2.01741L349.003 8.90576L356.19 15.9901Z" fill="#FFD801"/>
<path d="M357.451 9.02405L352.28 14.1213L346.957 8.87427L352.128 3.77697L357.451 9.02405ZM352.252 12.1077L355.412 8.99267L352.163 5.7907L349.003 8.90576L352.252 12.1077Z" fill="#FFD801"/>
</svg>
