<svg width="55" height="55" viewBox="0 0 55 55" fill="none" xmlns="http://www.w3.org/2000/svg">
<path fill-rule="evenodd" clip-rule="evenodd" d="M5.02697 5.02551L5.02549 5.02698C3.02584 7.02209 1.98495 9.57512 1.4542 13.19C0.918905 16.8359 0.916667 21.4453 0.916667 27.4949C0.916667 33.5447 0.918905 38.1542 1.45421 41.8014C1.98496 45.4175 3.02594 47.9735 5.02622 49.9738L5.02697 49.9747C7.02206 51.9742 9.57501 53.0153 13.19 53.5459C16.8359 54.0811 21.4452 54.0835 27.4949 54.0835C33.5447 54.0835 38.154 54.0811 41.8012 53.5459C45.4174 53.0153 47.9732 51.9742 49.9737 49.9738C51.974 47.9735 53.0151 45.4197 53.5456 41.8051C54.0808 38.1593 54.0832 33.5497 54.0832 27.4949C54.0832 21.4403 54.0808 16.8309 53.5456 13.1851C53.0151 9.57038 51.974 7.01672 49.9737 5.01627C47.9734 3.02094 45.4198 1.98251 41.8051 1.453C38.1591 0.918899 33.5495 0.916668 27.4949 0.916668C21.4402 0.916668 16.8309 0.918915 13.1863 1.4542C9.57286 1.98491 7.02221 3.0257 5.02697 5.02551ZM50.6218 4.3681C54.9998 8.74616 55 15.4379 55 27.4949C55 39.5522 54.9998 46.244 50.6218 50.6221C46.2437 55 39.5421 55 27.4949 55C15.4478 55 8.74609 55 4.37806 50.6221C0 46.244 0 39.5422 0 27.4949C0 15.4479 0 8.74616 4.37806 4.37806C8.74609 0 15.4378 0 27.4949 0C39.5521 0 46.2437 0 50.6218 4.3681Z" fill="white"/>
<path d="M26.8622 44.7281C24.9655 43.2644 23.5668 41.0809 23.1164 38.5375H17V11.7834C20.2953 13.4391 22.6422 17.1103 22.9267 20.9014L23.8513 28.4118L23.4009 28.3398C22.4052 28.3398 21.5517 29.2756 21.5517 30.2113C21.5517 31.0751 22.2155 31.819 23.069 32.0109L24.1832 32.2748C26.0322 28.7476 27.0755 25.2926 27.0755 21.8852C27.0755 18.8139 26.6724 15.7666 26.625 12.6472C26.625 11.2555 27.1467 9.98385 28.0001 9C28.8535 10.0078 29.375 11.2555 29.375 12.6472C29.375 15.7666 28.9247 18.8378 28.9247 21.8852C28.9247 25.2684 29.9677 28.7476 31.8169 32.2748L32.9311 32.0109C33.7845 31.819 34.4483 31.0751 34.4483 30.2113C34.4483 29.2756 33.5949 28.3398 32.5991 28.3398L32.1488 28.4118L33.0732 20.9014C33.5237 17.1103 35.7049 13.4391 39 11.7834V38.5375H32.8836C32.4333 41.0571 31.1056 43.3365 29.138 44.7281C28.6874 45.0642 28.2845 45.4721 28.0238 46C27.7156 45.448 27.3125 45.0642 26.8622 44.7281ZM19.8922 29.2997C20.153 28.2918 20.8879 27.4278 21.7888 26.9002L21.0539 20.7095C20.7931 18.7899 20.0108 17.0622 18.8254 15.6466V29.2756H19.8922V29.2997ZM22.9979 36.666C22.9979 35.7302 23.1401 34.8665 23.3298 34.0025L22.4763 33.8106C21.2198 33.4028 20.2479 32.419 19.9159 31.1472H18.8728V36.666H22.9979ZM27.0518 36.666C27.0518 35.5383 26.1984 34.5304 25.0842 34.4104C24.8943 35.1302 24.7521 35.8741 24.7521 36.666H27.0518ZM27.0518 38.5375H25.013C25.3449 40.0012 26.0559 41.3208 27.0518 42.4726V38.5375ZM29.944 32.7547C29.1617 31.291 28.4267 29.7555 27.9764 28.1718C27.5258 29.7794 26.791 31.291 26.0088 32.7547C26.791 32.9467 27.4548 33.4746 27.9764 34.0746C28.4978 33.4746 29.1617 32.9467 29.944 32.7547ZM31.2005 36.666C31.2005 35.8741 31.0581 35.1302 30.8686 34.4104C29.7544 34.5545 28.901 35.5383 28.901 36.666H31.2005ZM30.9398 38.5375H28.901V42.4726C29.8965 41.3208 30.6078 40.0012 30.9398 38.5375ZM37.1273 36.666V31.1472H36.0841C35.7521 32.419 34.7803 33.4028 33.5237 33.8106L32.6703 34.0025C32.8599 34.8665 33.0023 35.7302 33.0023 36.666H37.1273ZM37.1273 15.6706C35.942 17.0622 35.0885 18.7899 34.8987 20.7334L34.1639 26.9241C35.0885 27.452 35.7996 28.3157 36.0603 29.3236H37.1273V15.6706Z" fill="white"/>
</svg>
