<svg width="319" height="14" viewBox="0 0 319 14" fill="none" xmlns="http://www.w3.org/2000/svg">
<path d="M13.2916 6.67612L6.73862 -0.000101372L0 6.86523L6.553 13.5415L13.2916 6.67612ZM6.72092 1.51196L11.8074 6.69412L6.57622 12.0237L1.48971 6.84155L6.72092 1.51196Z" fill="#6B9CF0"/>
<path d="M7.63853 6.75255L3.87457 2.91781L0 6.86523L3.76396 10.7L7.63853 6.75255ZM3.85411 4.43268L6.15434 6.77616L3.78993 9.18503L1.48971 6.84155L3.85411 4.43268Z" fill="#6B9CF0"/>
<path d="M66.4636 6.6771L59.9106 0.00087519L53.172 6.86621L59.725 13.5424L66.4636 6.6771ZM59.8929 1.51293L64.9794 6.69509L59.7482 12.0247L54.6617 6.84252L59.8929 1.51293Z" fill="#6B9CF0"/>
<path d="M60.8105 6.75353L57.0466 2.91878L53.172 6.86621L56.936 10.701L60.8105 6.75353ZM57.0261 4.43366L59.3263 6.77714L56.9619 9.186L54.6617 6.84252L57.0261 4.43366Z" fill="#6B9CF0"/>
<path d="M119.622 6.6771L113.069 0.00087519L106.331 6.86621L112.884 13.5424L119.622 6.6771ZM113.051 1.51293L118.138 6.69509L112.907 12.0247L107.82 6.84252L113.051 1.51293Z" fill="#6B9CF0"/>
<path d="M113.969 6.75353L110.205 2.91878L106.331 6.86621L110.095 10.701L113.969 6.75353ZM110.185 4.43366L112.485 6.77714L110.12 9.186L107.82 6.84252L110.185 4.43366Z" fill="#6B9CF0"/>
<path d="M39.8699 6.6771L33.3169 0.00087519L26.5783 6.86621L33.1313 13.5424L39.8699 6.6771ZM33.2992 1.51293L38.3857 6.69509L33.1545 12.0247L28.068 6.84252L33.2992 1.51293Z" fill="#6B9CF0"/>
<path d="M34.2168 6.75353L30.4529 2.91878L26.5783 6.86621L30.3423 10.701L34.2168 6.75353ZM30.4324 4.43366L32.7326 6.77714L30.3682 9.186L28.068 6.84252L30.4324 4.43366Z" fill="#6B9CF0"/>
<path d="M93.0421 6.67612L86.4891 -0.000101372L79.7505 6.86523L86.3035 13.5415L93.0421 6.67612ZM86.4714 1.51196L91.5579 6.69412L86.3267 12.0237L81.2402 6.84155L86.4714 1.51196Z" fill="#6B9CF0"/>
<path d="M87.389 6.75255L83.6251 2.91781L79.7505 6.86523L83.5145 10.7L87.389 6.75255ZM83.6046 4.43268L85.9048 6.77616L83.5404 9.18503L81.2402 6.84155L83.6046 4.43268Z" fill="#6B9CF0"/>
<path d="M146.212 6.67661L139.659 0.000386909L132.92 6.86572L139.473 13.5419L146.212 6.67661ZM139.641 1.51245L144.728 6.69461L139.497 12.0242L134.41 6.84203L139.641 1.51245Z" fill="#6B9CF0"/>
<path d="M140.559 6.75304L136.795 2.9183L132.92 6.86572L136.684 10.7005L140.559 6.75304ZM136.775 4.43317L139.075 6.77665L136.71 9.18552L134.41 6.84203L136.775 4.43317Z" fill="#6B9CF0"/>
<path d="M26.5884 6.6771L20.0354 0.00087519L13.2968 6.86621L19.8498 13.5424L26.5884 6.6771ZM20.0177 1.51293L25.1042 6.69509L19.873 12.0247L14.7865 6.84252L20.0177 1.51293Z" fill="#6B9CF0"/>
<path d="M20.9353 6.75353L17.1714 2.91878L13.2968 6.86621L17.0608 10.701L20.9353 6.75353ZM17.1509 4.43366L19.4512 6.77714L17.0867 9.186L14.7865 6.84252L17.1509 4.43366Z" fill="#6B9CF0"/>
<path d="M79.7451 6.6771L73.1921 0.00087519L66.4535 6.86621L73.0065 13.5424L79.7451 6.6771ZM73.1744 1.51293L78.2609 6.69509L73.0297 12.0247L67.9432 6.84252L73.1744 1.51293Z" fill="#6B9CF0"/>
<path d="M74.092 6.75353L70.3281 2.91878L66.4535 6.86621L70.2175 10.701L74.092 6.75353ZM70.3076 4.43366L72.6078 6.77714L70.2434 9.186L67.9432 6.84252L70.3076 4.43366Z" fill="#6B9CF0"/>
<path d="M132.917 6.67661L126.364 0.000386909L119.625 6.86572L126.178 13.5419L132.917 6.67661ZM126.346 1.51245L131.433 6.69461L126.202 12.0242L121.115 6.84203L126.346 1.51245Z" fill="#6B9CF0"/>
<path d="M127.264 6.75304L123.5 2.9183L119.625 6.86572L123.389 10.7005L127.264 6.75304ZM123.48 4.43317L125.78 6.77665L123.415 9.18552L121.115 6.84203L123.48 4.43317Z" fill="#6B9CF0"/>
<path d="M53.1669 6.67612L46.6139 -0.000101372L39.8752 6.86523L46.4282 13.5415L53.1669 6.67612ZM46.5962 1.51196L51.6827 6.69412L46.4515 12.0237L41.3649 6.84155L46.5962 1.51196Z" fill="#6B9CF0"/>
<path d="M47.5138 6.75255L43.7498 2.91781L39.8752 6.86523L43.6392 10.7L47.5138 6.75255ZM43.7294 4.43268L46.0296 6.77616L43.6652 9.18503L41.3649 6.84155L43.7294 4.43268Z" fill="#6B9CF0"/>
<path d="M106.338 6.67661L99.7848 0.000386909L93.0462 6.86572L99.5992 13.5419L106.338 6.67661ZM99.7671 1.51245L104.854 6.69461L99.6224 12.0242L94.5359 6.84203L99.7671 1.51245Z" fill="#6B9CF0"/>
<path d="M100.685 6.75304L96.9208 2.9183L93.0462 6.86572L96.8102 10.7005L100.685 6.75304ZM96.9003 4.43317L99.2005 6.77665L96.8361 9.18552L94.5359 6.84203L96.9003 4.43317Z" fill="#6B9CF0"/>
<path d="M159.497 6.6771L152.944 0.00087519L146.206 6.86621L152.759 13.5424L159.497 6.6771ZM152.927 1.51293L158.013 6.69509L152.782 12.0247L147.695 6.84252L152.927 1.51293Z" fill="#6B9CF0"/>
<path d="M153.844 6.75353L150.08 2.91878L146.206 6.86621L149.97 10.701L153.844 6.75353ZM150.06 4.43366L152.36 6.77714L149.996 9.186L147.695 6.84252L150.06 4.43366Z" fill="#6B9CF0"/>
<path d="M172.791 6.67661L166.238 0.000386909L159.5 6.86572L166.053 13.5419L172.791 6.67661ZM166.221 1.51245L171.307 6.69461L166.076 12.0242L160.989 6.84203L166.221 1.51245Z" fill="#6B9CF0"/>
<path d="M167.138 6.75304L163.374 2.9183L159.5 6.86572L163.264 10.7005L167.138 6.75304ZM163.354 4.43317L165.654 6.77665L163.29 9.18552L160.989 6.84203L163.354 4.43317Z" fill="#6B9CF0"/>
<path d="M225.961 6.6771L219.408 0.00087519L212.669 6.86621L219.222 13.5424L225.961 6.6771ZM219.39 1.51293L224.476 6.69509L219.245 12.0247L214.159 6.84252L219.39 1.51293Z" fill="#6B9CF0"/>
<path d="M220.307 6.75353L216.543 2.91878L212.669 6.86621L216.433 10.701L220.307 6.75353ZM216.523 4.43366L218.823 6.77714L216.459 9.186L214.159 6.84252L216.523 4.43366Z" fill="#6B9CF0"/>
<path d="M279.123 6.67661L272.57 0.000386909L265.831 6.86572L272.384 13.5419L279.123 6.67661ZM272.552 1.51245L277.639 6.69461L272.408 12.0242L267.321 6.84203L272.552 1.51245Z" fill="#6B9CF0"/>
<path d="M273.47 6.75304L269.706 2.9183L265.831 6.86572L269.595 10.7005L273.47 6.75304ZM269.685 4.43317L271.986 6.77665L269.621 9.18552L267.321 6.84203L269.685 4.43317Z" fill="#6B9CF0"/>
<path d="M199.372 6.67661L192.819 0.000386909L186.08 6.86572L192.633 13.5419L199.372 6.67661ZM192.801 1.51245L197.887 6.69461L192.656 12.0242L187.57 6.84203L192.801 1.51245Z" fill="#6B9CF0"/>
<path d="M193.718 6.75304L189.955 2.9183L186.08 6.86572L189.844 10.7005L193.718 6.75304ZM189.934 4.43317L192.234 6.77665L189.87 9.18552L187.57 6.84203L189.934 4.43317Z" fill="#6B9CF0"/>
<path d="M252.542 6.67661L245.989 0.000386909L239.25 6.86572L245.803 13.5419L252.542 6.67661ZM245.971 1.51245L251.058 6.69461L245.826 12.0242L240.74 6.84203L245.971 1.51245Z" fill="#6B9CF0"/>
<path d="M246.889 6.75304L243.125 2.9183L239.25 6.86572L243.014 10.7005L246.889 6.75304ZM243.104 4.43317L245.404 6.77665L243.04 9.18552L240.74 6.84203L243.104 4.43317Z" fill="#6B9CF0"/>
<path d="M305.711 6.6771L299.158 0.00087519L292.419 6.86621L298.972 13.5424L305.711 6.6771ZM299.14 1.51293L304.227 6.69509L298.995 12.0247L293.909 6.84252L299.14 1.51293Z" fill="#6B9CF0"/>
<path d="M300.058 6.75353L296.294 2.91878L292.419 6.86621L296.183 10.701L300.058 6.75353ZM296.273 4.43366L298.574 6.77714L296.209 9.186L293.909 6.84252L296.273 4.43366Z" fill="#6B9CF0"/>
<path d="M186.086 6.6771L179.533 0.00087519L172.795 6.86621L179.348 13.5424L186.086 6.6771ZM179.516 1.51293L184.602 6.69509L179.371 12.0247L174.284 6.84252L179.516 1.51293Z" fill="#6B9CF0"/>
<path d="M180.433 6.75353L176.669 2.91878L172.795 6.86621L176.559 10.701L180.433 6.75353ZM176.649 4.43366L178.949 6.77714L176.585 9.186L174.284 6.84252L176.649 4.43366Z" fill="#6B9CF0"/>
<path d="M239.248 6.67661L232.695 0.000386909L225.956 6.86572L232.509 13.5419L239.248 6.67661ZM232.677 1.51245L237.764 6.69461L232.532 12.0242L227.446 6.84203L232.677 1.51245Z" fill="#6B9CF0"/>
<path d="M233.595 6.75304L229.831 2.9183L225.956 6.86572L229.72 10.7005L233.595 6.75304ZM229.81 4.43317L232.11 6.77665L229.746 9.18552L227.446 6.84203L229.81 4.43317Z" fill="#6B9CF0"/>
<path d="M292.417 6.67661L285.864 0.000386909L279.125 6.86572L285.678 13.5419L292.417 6.67661ZM285.846 1.51245L290.933 6.69461L285.701 12.0242L280.615 6.84203L285.846 1.51245Z" fill="#6B9CF0"/>
<path d="M286.764 6.75304L283 2.9183L279.125 6.86572L282.889 10.7005L286.764 6.75304ZM282.979 4.43317L285.28 6.77665L282.915 9.18552L280.615 6.84203L282.979 4.43317Z" fill="#6B9CF0"/>
<path d="M212.667 6.67661L206.114 0.000386909L199.375 6.86572L205.928 13.5419L212.667 6.67661ZM206.096 1.51245L211.182 6.69461L205.951 12.0242L200.865 6.84203L206.096 1.51245Z" fill="#6B9CF0"/>
<path d="M207.013 6.75304L203.25 2.9183L199.375 6.86572L203.139 10.7005L207.013 6.75304ZM203.229 4.43317L205.529 6.77665L203.165 9.18552L200.865 6.84203L203.229 4.43317Z" fill="#6B9CF0"/>
<path d="M265.836 6.6771L259.283 0.00087519L252.544 6.86621L259.097 13.5424L265.836 6.6771ZM259.265 1.51293L264.351 6.69509L259.12 12.0247L254.034 6.84252L259.265 1.51293Z" fill="#6B9CF0"/>
<path d="M260.182 6.75353L256.419 2.91878L252.544 6.86621L256.308 10.701L260.182 6.75353ZM256.398 4.43366L258.698 6.77714L256.334 9.186L254.034 6.84252L256.398 4.43366Z" fill="#6B9CF0"/>
<path d="M319 6.6771L312.447 0.00087519L305.708 6.86621L312.261 13.5424L319 6.6771ZM312.429 1.51293L317.516 6.69509L312.285 12.0247L307.198 6.84252L312.429 1.51293Z" fill="#6B9CF0"/>
<path d="M313.347 6.75353L309.583 2.91878L305.708 6.86621L309.472 10.701L313.347 6.75353ZM309.562 4.43366L311.863 6.77714L309.498 9.186L307.198 6.84252L309.562 4.43366Z" fill="#6B9CF0"/>
</svg>
