<svg width="59" height="54" viewBox="0 0 59 54" fill="none" xmlns="http://www.w3.org/2000/svg">
    <g clip-path="url(#clip0_1_513)">
        <path d="M29.0065 4.97749C25.8199 1.79121 21.4982 0.0012207 16.9919 0.0012207C12.4856 0.0012207 8.16382 1.79121 4.97725 4.97749V4.97749C1.79097 8.16406 0.000976563 12.4859 0.000976562 16.9921C0.000976562 21.4984 1.79097 25.8201 4.97725 29.0066L5.18153 29.2051L29.1932 53.2109V5.14673L29.0065 4.97749Z" fill="#6B9CF0"/>
        <path d="M53.3625 5.02995C50.176 1.84367 45.8542 0.0536804 41.348 0.0536804C36.8417 0.0536804 32.5199 1.84367 29.3333 5.02995L29.1817 5.18167V53.2458L53.3684 29.0649C54.9466 27.4866 56.1983 25.6128 57.0522 23.5506C57.906 21.4884 58.3452 19.2781 58.3446 17.0462C58.3441 14.8142 57.9038 12.6042 57.049 10.5424C56.1941 8.48065 54.9415 6.60751 53.3625 5.02995V5.02995Z" fill="#6B9CF0"/>
    </g>
    <defs>
        <clipPath id="clip0_1_513">
            <rect width="58.3633" height="53.24" fill="white"/>
        </clipPath>
    </defs>
</svg>
