<svg width="72" height="72" viewBox="0 0 72 72" fill="none" xmlns="http://www.w3.org/2000/svg">
    <circle cx="36" cy="36" r="36" fill="#FFD801"/>
    <path d="M34.4484 60.2469C31.8621 58.2294 29.9548 55.2197 29.3405 51.7139H21V14.8366C25.4935 17.1187 28.694 22.179 29.0819 27.4046L30.3427 37.7568L29.7284 37.6576C28.3707 37.6576 27.2069 38.9475 27.2069 40.2373C27.2069 41.4278 28.112 42.4532 29.2759 42.7177L30.7952 43.0815C33.3167 38.2197 34.7393 33.4573 34.7393 28.7606C34.7393 24.5272 34.1896 20.3269 34.1249 16.0273C34.1249 14.109 34.8363 12.3561 36.0001 11C37.1639 12.3892 37.8751 14.109 37.8751 16.0273C37.8751 20.3269 37.2609 24.5603 37.2609 28.7606C37.2609 33.4241 38.6832 38.2197 41.2049 43.0815L42.7242 42.7177C43.888 42.4532 44.7932 41.4278 44.7932 40.2373C44.7932 38.9475 43.6294 37.6576 42.2716 37.6576L41.6575 37.7568L42.918 27.4046C43.5324 22.179 46.5067 17.1187 51 14.8366V51.7139H42.6595C42.0454 55.1868 40.2349 58.3288 37.5518 60.2469C36.9374 60.7101 36.388 61.2724 36.0324 62C35.6122 61.2391 35.0625 60.7101 34.4484 60.2469ZM24.9439 38.9806C25.2995 37.5915 26.3017 36.4005 27.5302 35.6732L26.528 27.1401C26.1724 24.4942 25.1056 22.1128 23.4892 20.1615V38.9475H24.9439V38.9806ZM29.1789 49.1342C29.1789 47.8443 29.3728 46.6538 29.6315 45.463L28.4676 45.1984C26.7543 44.6362 25.4289 43.2802 24.9763 41.5272H23.5538V49.1342H29.1789ZM34.707 49.1342C34.707 47.5798 33.5432 46.1906 32.0239 46.0251C31.765 47.0173 31.5711 48.0426 31.5711 49.1342H34.707ZM34.707 51.7139H31.9268C32.3795 53.7314 33.349 55.5503 34.707 57.1379V51.7139ZM38.6509 43.743C37.5842 41.7255 36.5818 39.609 35.9678 37.426C35.3533 39.6418 34.3514 41.7255 33.2847 43.743C34.3514 44.0076 35.2566 44.7352 35.9678 45.5622C36.6789 44.7352 37.5842 44.0076 38.6509 43.743ZM40.3643 49.1342C40.3643 48.0426 40.1702 47.0173 39.9117 46.0251C38.3924 46.2238 37.2286 47.5798 37.2286 49.1342H40.3643ZM40.0088 51.7139H37.2286V57.1379C38.5862 55.5503 39.5561 53.7314 40.0088 51.7139ZM48.4463 49.1342V41.5272H47.0237C46.5711 43.2802 45.2458 44.6362 43.5324 45.1984L42.3686 45.463C42.6272 46.6538 42.8213 47.8443 42.8213 49.1342H48.4463ZM48.4463 20.1945C46.8299 22.1128 45.6662 24.4942 45.4073 27.1731L44.4053 35.7061C45.6662 36.4338 46.6358 37.6243 46.9913 39.0136H48.4463V20.1945Z" fill="black"/>
</svg>
